<?xml version="1.0" encoding="UTF-8"?>
<!DOCTYPE svg PUBLIC "-//W3C//DTD SVG 1.1//EN" "http://www.w3.org/Graphics/SVG/1.1/DTD/svg11.dtd">
<svg xmlns="http://www.w3.org/2000/svg" version="1.1" width="318px" height="310px" style="shape-rendering:geometricPrecision; text-rendering:geometricPrecision; image-rendering:optimizeQuality; fill-rule:evenodd; clip-rule:evenodd" xmlns:xlink="http://www.w3.org/1999/xlink">
<g><path style="opacity:0.748" fill="#413f40" d="M 88.5,29.5 C 103.01,29.1707 117.343,29.5041 131.5,30.5C 116.785,30.1996 102.118,30.5329 87.5,31.5C 87.8333,30.8333 88.1667,30.1667 88.5,29.5 Z"/></g>
<g><path style="opacity:0.613" fill="#a8a6a7" d="M 88.5,29.5 C 136.367,28.2409 184.033,28.5742 231.5,30.5C 207.833,30.5 184.167,30.5 160.5,30.5C 150.833,30.5 141.167,30.5 131.5,30.5C 117.343,29.5041 103.01,29.1707 88.5,29.5 Z"/></g>
<g><path style="opacity:0.337" fill="#b5b5b5" d="M 88.5,29.5 C 88.1667,30.1667 87.8333,30.8333 87.5,31.5C 86.8826,31.6107 86.3826,31.944 86,32.5C 85.5045,34.4727 85.3379,36.4727 85.5,38.5C 82.3228,34.2254 83.3228,31.2254 88.5,29.5 Z"/></g>
<g><path style="opacity:0.896" fill="#333232" d="M 160.5,30.5 C 184.167,30.5 207.833,30.5 231.5,30.5C 232.167,30.5 232.5,30.8333 232.5,31.5C 232.5,31.8333 232.5,32.1667 232.5,32.5C 208.402,31.8427 184.402,31.176 160.5,30.5 Z"/></g>
<g><path style="opacity:1" fill="#222021" d="M 131.5,30.5 C 141.167,30.5 150.833,30.5 160.5,30.5C 184.402,31.176 208.402,31.8427 232.5,32.5C 233.5,32.8333 234.167,33.5 234.5,34.5C 234.336,37.8174 233.336,40.8174 231.5,43.5C 230.167,43.5 229.5,44.1667 229.5,45.5C 226.527,46.8103 224.193,48.8103 222.5,51.5C 220.368,51.5544 219.035,52.5544 218.5,54.5C 217.167,54.8333 215.833,55.1667 214.5,55.5C 192.151,55.5208 169.818,55.3541 147.5,55C 146.015,56.7565 146.348,57.9232 148.5,58.5C 148.973,59.9063 149.973,60.573 151.5,60.5C 151.5,62.5 152.5,63.5 154.5,63.5C 154.414,64.4959 154.748,65.3292 155.5,66C 157.734,67.7498 160.068,69.2498 162.5,70.5C 163.203,72.7157 164.536,74.549 166.5,76C 169.397,78.41 172.397,80.5767 175.5,82.5C 175.525,85.179 176.858,86.5123 179.5,86.5C 180.585,88.5869 182.251,89.9202 184.5,90.5C 184.833,93.5 186.5,95.1667 189.5,95.5C 190.5,95.8333 191.167,96.5 191.5,97.5C 193.167,99.5 194.833,101.5 196.5,103.5C 196.627,106.245 195.46,108.245 193,109.5C 191.038,109.969 189.205,109.303 187.5,107.5C 187.167,107.833 186.833,108.167 186.5,108.5C 188.173,110.523 188.84,112.856 188.5,115.5C 187.167,115.5 185.833,115.5 184.5,115.5C 184.741,118.999 183.908,119.332 182,116.5C 181.517,117.448 181.351,118.448 181.5,119.5C 179.5,119.833 177.5,120.167 175.5,120.5C 174.738,118.738 173.404,117.738 171.5,117.5C 170.833,114.833 169.167,113.167 166.5,112.5C 165.089,110.086 163.089,108.419 160.5,107.5C 158.5,105.167 156.5,102.833 154.5,100.5C 152.126,97.126 149.126,94.4593 145.5,92.5C 144.395,91.3995 143.062,90.7329 141.5,90.5C 141.106,88.2901 139.773,86.9568 137.5,86.5C 133.773,81.7703 129.44,77.7703 124.5,74.5C 124.5,72.5 123.5,71.5 121.5,71.5C 119.1,68.0969 116.1,65.4302 112.5,63.5C 111.415,61.4131 109.749,60.0798 107.5,59.5C 106.167,56.1667 103.833,53.8333 100.5,52.5C 98.4309,49.4275 95.7642,47.0941 92.5,45.5C 91.5,45.1667 90.8333,44.5 90.5,43.5C 90.0269,42.0937 89.0269,41.427 87.5,41.5C 86.5987,40.7095 85.9321,39.7095 85.5,38.5C 85.3379,36.4727 85.5045,34.4727 86,32.5C 86.3826,31.944 86.8826,31.6107 87.5,31.5C 102.118,30.5329 116.785,30.1996 131.5,30.5 Z"/></g>
<g><path style="opacity:0.024" fill="#dcdadb" d="M 232.5,32.5 C 232.5,32.1667 232.5,31.8333 232.5,31.5C 234.5,31.5 235.5,32.5 235.5,34.5C 235.167,34.5 234.833,34.5 234.5,34.5C 234.167,33.5 233.5,32.8333 232.5,32.5 Z"/></g>
<g><path style="opacity:0.122" fill="#adadad" d="M 234.5,34.5 C 234.833,34.5 235.167,34.5 235.5,34.5C 236.301,38.1487 234.968,41.1487 231.5,43.5C 233.336,40.8174 234.336,37.8174 234.5,34.5 Z"/></g>
<g><path style="opacity:0.173" fill="#b2b2b2" d="M 87.5,41.5 C 89.0269,41.427 90.0269,42.0937 90.5,43.5C 88.9731,43.573 87.9731,42.9063 87.5,41.5 Z"/></g>
<g><path style="opacity:0.075" fill="#dfdfdf" d="M 231.5,43.5 C 231.167,44.5 230.5,45.1667 229.5,45.5C 229.5,44.1667 230.167,43.5 231.5,43.5 Z"/></g>
<g><path style="opacity:0.498" fill="#ababad" d="M 92.5,45.5 C 95.7642,47.0941 98.4309,49.4275 100.5,52.5C 97.2358,50.9059 94.5691,48.5725 92.5,45.5 Z"/></g>
<g><path style="opacity:0.059" fill="#d4d4d4" d="M 229.5,45.5 C 227.781,48.2195 225.447,50.2195 222.5,51.5C 224.193,48.8103 226.527,46.8103 229.5,45.5 Z"/></g>
<g><path style="opacity:0.278" fill="#beced4" d="M 70.5,51.5 C 68.1432,51.3367 65.8098,51.5034 63.5,52C 62.5291,53.4813 61.1958,54.3146 59.5,54.5C 62.4223,49.9603 66.0889,48.9603 70.5,51.5 Z"/></g>
<g><path style="opacity:0.553" fill="#9c9c9d" d="M 100.5,52.5 C 103.833,53.8333 106.167,56.1667 107.5,59.5C 104.833,57.5 102.5,55.1667 100.5,52.5 Z"/></g>
<g><path style="opacity:0.216" fill="#bfbfbf" d="M 222.5,51.5 C 221.738,53.2624 220.404,54.2624 218.5,54.5C 219.035,52.5544 220.368,51.5544 222.5,51.5 Z"/></g>
<g><path style="opacity:0.225" fill="#afb9c6" d="M 297.5,53.5 C 293.681,53.414 290.015,54.0807 286.5,55.5C 287.058,54.2101 288.058,53.3768 289.5,53C 292.367,52.1993 295.034,52.3659 297.5,53.5 Z"/></g>
<g><path style="opacity:0.247" fill="#b4c6d2" d="M 71.5,51.5 C 77.4948,56.4951 83.1615,61.8284 88.5,67.5C 85.5,65.5 82.5,63.5 79.5,61.5C 79.1667,61.5 78.8333,61.5 78.5,61.5C 76.1153,58.1299 73.782,54.7966 71.5,51.5 Z"/></g>
<g><path style="opacity:0.713" fill="#565555" d="M 214.5,55.5 C 214.5,55.8333 214.5,56.1667 214.5,56.5C 193.833,56.5 173.167,56.5 152.5,56.5C 152.167,56.5 151.833,56.5 151.5,56.5C 149.821,56.2852 148.821,56.9519 148.5,58.5C 146.348,57.9232 146.015,56.7565 147.5,55C 169.818,55.3541 192.151,55.5208 214.5,55.5 Z"/></g>
<g><path style="opacity:0.098" fill="#e2e2e2" d="M 218.5,54.5 C 217.713,56.1042 216.38,56.7709 214.5,56.5C 214.5,56.1667 214.5,55.8333 214.5,55.5C 215.833,55.1667 217.167,54.8333 218.5,54.5 Z"/></g>
<g><path style="opacity:0.065" fill="#e7e5e6" d="M 151.5,56.5 C 151.082,57.2216 150.416,57.7216 149.5,58C 150.381,58.7083 151.047,59.5416 151.5,60.5C 149.973,60.573 148.973,59.9063 148.5,58.5C 148.821,56.9519 149.821,56.2852 151.5,56.5 Z"/></g>
<g><path style="opacity:0.134" fill="#dcdcdc" d="M 152.5,56.5 C 173.167,56.5 193.833,56.5 214.5,56.5C 211.64,57.2439 208.64,57.9106 205.5,58.5C 187.922,57.888 170.255,57.2213 152.5,56.5 Z"/></g>
<g><path style="opacity:0.188" fill="#b4c1d0" d="M 286.5,55.5 C 285.167,57.1667 283.833,58.8333 282.5,60.5C 275.105,67.2339 267.439,73.5673 259.5,79.5C 267.927,70.7977 276.927,62.7977 286.5,55.5 Z"/></g>
<g><path style="opacity:0.176" fill="#c0bfc1" d="M 107.5,59.5 C 109.749,60.0798 111.415,61.4131 112.5,63.5C 110.251,62.9202 108.585,61.5869 107.5,59.5 Z"/></g>
<g><path style="opacity:0.318" fill="#c3c1c2" d="M 151.5,60.5 C 152.833,61.1667 153.833,62.1667 154.5,63.5C 152.5,63.5 151.5,62.5 151.5,60.5 Z"/></g>
<g><path style="opacity:0.471" fill="#a2a2a2" d="M 112.5,63.5 C 116.1,65.4302 119.1,68.0969 121.5,71.5C 117.9,69.5698 114.9,66.9031 112.5,63.5 Z"/></g>
<g><path style="opacity:0.024" fill="#c3c3c3" d="M 154.5,63.5 C 157.784,65.117 160.451,67.4503 162.5,70.5C 160.068,69.2498 157.734,67.7498 155.5,66C 154.748,65.3292 154.414,64.4959 154.5,63.5 Z"/></g>
<g><path style="opacity:0.365" fill="#b5c6d0" d="M 57.5,56.5 C 55.8729,58.6298 54.0396,60.6298 52,62.5C 51.3333,64.5 51.3333,66.5 52,68.5C 52.3826,69.056 52.8826,69.3893 53.5,69.5C 54.925,70.922 55.925,72.5887 56.5,74.5C 46.9799,67.9233 47.3133,61.9233 57.5,56.5 Z"/></g>
<g><path style="opacity:1" fill="#6a899e" d="M 70.5,51.5 C 70.8333,51.5 71.1667,51.5 71.5,51.5C 73.782,54.7966 76.1153,58.1299 78.5,61.5C 74.2999,59.4658 70.1332,57.1325 66,54.5C 58.0921,56.2863 53.9254,61.2863 53.5,69.5C 52.8826,69.3893 52.3826,69.056 52,68.5C 51.3333,66.5 51.3333,64.5 52,62.5C 54.0396,60.6298 55.8729,58.6298 57.5,56.5C 57.8333,55.5 58.5,54.8333 59.5,54.5C 61.1958,54.3146 62.5291,53.4813 63.5,52C 65.8098,51.5034 68.1432,51.3367 70.5,51.5 Z"/></g>
<g><path style="opacity:1" fill="#738fa8" d="M 79.5,61.5 C 82.5,63.5 85.5,65.5 88.5,67.5C 92.1002,69.4302 95.1002,72.0969 97.5,75.5C 99.436,79.3109 102.436,81.9775 106.5,83.5C 109.167,85.5 111.5,87.8333 113.5,90.5C 114.712,93.1068 116.712,94.7735 119.5,95.5C 124.461,99.1256 129.128,103.126 133.5,107.5C 133.733,109.062 134.4,110.395 135.5,111.5C 133.127,110.706 130.794,109.706 128.5,108.5C 127.174,105.513 125.174,103.18 122.5,101.5C 118.383,97.2739 113.716,93.7739 108.5,91C 107.663,89.9887 107.33,88.8221 107.5,87.5C 105.436,87.313 103.436,86.813 101.5,86C 100.058,81.5564 97.0575,78.8897 92.5,78C 89.942,75.0388 87.2754,72.2055 84.5,69.5C 82.7083,66.9763 81.0417,64.3096 79.5,61.5 Z"/></g>
<g><path style="opacity:0.616" fill="#8b8a8b" d="M 121.5,71.5 C 123.5,71.5 124.5,72.5 124.5,74.5C 123.167,73.8333 122.167,72.8333 121.5,71.5 Z"/></g>
<g><path style="opacity:1" fill="#4d709e" d="M 291.5,220.5 C 288.673,220.416 286.006,219.75 283.5,218.5C 281.669,214.846 279.336,211.513 276.5,208.5C 275.616,205.344 274.616,202.344 273.5,199.5C 273.969,174.993 274.469,150.326 275,125.5C 274.821,120.563 276.321,116.229 279.5,112.5C 278.763,110.288 277.763,107.955 276.5,105.5C 274.352,104.242 272.185,104.242 270,105.5C 267.203,103.241 264.87,100.574 263,97.5C 262.167,99 261,100.167 259.5,101C 261.246,101.471 262.913,102.138 264.5,103C 261.629,106.018 259.629,108.851 258.5,111.5C 257.5,111.5 256.5,111.5 255.5,111.5C 255.5,112.5 255.5,113.5 255.5,114.5C 253.213,114.276 251.047,113.609 249,112.5C 248.228,112.645 247.561,112.978 247,113.5C 245.229,109.627 242.729,106.293 239.5,103.5C 246.914,94.332 255.414,86.332 265,79.5C 265.309,78.2341 265.809,77.0674 266.5,76C 268.833,75.6667 271.167,75.3333 273.5,75C 274.424,74.15 274.424,73.15 273.5,72C 274.506,70.662 275.506,69.3287 276.5,68C 280.513,67.1501 282.513,64.6501 282.5,60.5C 284.196,60.3146 285.529,59.4813 286.5,58C 289.894,57.2483 293.227,57.4149 296.5,58.5C 297.667,105.83 297.833,153.163 297,200.5C 296.407,206.703 295.907,213.036 295.5,219.5C 293.901,219.232 292.568,219.566 291.5,220.5 Z"/></g>
<g><path style="opacity:0.506" fill="#b3b2b1" d="M 124.5,74.5 C 129.44,77.7703 133.773,81.7703 137.5,86.5C 132.56,83.2297 128.227,79.2297 124.5,74.5 Z"/></g>
<g><path style="opacity:0.271" fill="#c3d4e3" d="M 56.5,74.5 C 58.4113,75.075 60.078,76.075 61.5,77.5C 61.8333,78.1667 62.1667,78.8333 62.5,79.5C 59.9108,78.5806 57.9108,76.914 56.5,74.5 Z"/></g>
<g><path style="opacity:1" fill="#618bb2" d="M 78.5,61.5 C 78.8333,61.5 79.1667,61.5 79.5,61.5C 81.0417,64.3096 82.7083,66.9763 84.5,69.5C 80.9847,67.4535 77.1513,65.1201 73,62.5C 71.9887,63.3366 70.8221,63.67 69.5,63.5C 69.225,59.8913 67.225,57.8913 63.5,57.5C 60.9477,59.6008 59.781,62.2674 60,65.5C 63.3474,65.6667 66.8474,66.3334 70.5,67.5C 71.2298,68.9337 72.2298,70.1004 73.5,71C 71.0085,72.2492 71.1751,73.4158 74,74.5C 75.6995,73.5939 77.5328,73.2606 79.5,73.5C 80.1776,77.2727 78.8442,80.106 75.5,82C 77.286,82.7845 78.786,83.9512 80,85.5C 80.7175,84.5494 81.5509,84.3828 82.5,85C 83.6667,86.1667 84.8333,87.3333 86,88.5C 86.9138,87.3463 87.7471,87.513 88.5,89C 87.8333,89.3333 87.1667,89.6667 86.5,90C 89.2551,91.9532 92.2551,93.1199 95.5,93.5C 95.8235,97.521 96.1568,101.521 96.5,105.5C 95.1667,105.5 93.8333,105.5 92.5,105.5C 92.7243,100.448 90.3909,97.2818 85.5,96C 86.0219,95.4387 86.3552,94.772 86.5,94C 84.6898,90.3442 81.6898,88.5109 77.5,88.5C 74.1667,85.5 70.8333,82.5 67.5,79.5C 65.5504,78.6279 63.5504,77.9612 61.5,77.5C 60.078,76.075 58.4113,75.075 56.5,74.5C 55.925,72.5887 54.925,70.922 53.5,69.5C 53.9254,61.2863 58.0921,56.2863 66,54.5C 70.1332,57.1325 74.2999,59.4658 78.5,61.5 Z"/></g>
<g><path style="opacity:0.043" fill="#c3c3c3" d="M 162.5,70.5 C 167.445,73.8112 171.778,77.8112 175.5,82.5C 172.397,80.5767 169.397,78.41 166.5,76C 164.536,74.549 163.203,72.7157 162.5,70.5 Z"/></g>
<g><path style="opacity:0.447" fill="#b8c8d1" d="M 62.5,79.5 C 64.8333,79.8333 66.1667,81.1667 66.5,83.5C 64.8333,82.5 63.5,81.1667 62.5,79.5 Z"/></g>
<g><path style="opacity:0.212" fill="#b7c6d3" d="M 97.5,75.5 C 101.12,77.4528 104.12,80.1195 106.5,83.5C 102.436,81.9775 99.436,79.3109 97.5,75.5 Z"/></g>
<g><path style="opacity:0.4" fill="#c4d5e1" d="M 66.5,83.5 C 69.7642,85.0941 72.4309,87.4275 74.5,90.5C 71.2358,88.9059 68.5691,86.5725 66.5,83.5 Z"/></g>
<g><path style="opacity:0.384" fill="#b1bfc9" d="M 37.5,82.5 C 39.754,83.1237 41.4206,84.457 42.5,86.5C 39.796,86.3304 38.1293,84.9971 37.5,82.5 Z"/></g>
<g><path style="opacity:0.859" fill="#737373" d="M 175.5,82.5 C 177.167,83.5 178.5,84.8333 179.5,86.5C 176.858,86.5123 175.525,85.179 175.5,82.5 Z"/></g>
<g><path style="opacity:0.027" fill="#c6d3de" d="M 42.5,86.5 C 44.4044,86.7376 45.7377,87.7376 46.5,89.5C 44.5956,89.2624 43.2623,88.2624 42.5,86.5 Z"/></g>
<g><path style="opacity:1" fill="#6089b6" d="M 84.5,69.5 C 87.2754,72.2055 89.942,75.0388 92.5,78C 97.0575,78.8897 100.058,81.5564 101.5,86C 103.436,86.813 105.436,87.313 107.5,87.5C 107.33,88.8221 107.663,89.9887 108.5,91C 113.716,93.7739 118.383,97.2739 122.5,101.5C 122.421,102.93 122.754,104.264 123.5,105.5C 120.647,106.191 118.147,107.524 116,109.5C 114.667,106.833 113.333,106.833 112,109.5C 111.51,110.793 111.343,112.127 111.5,113.5C 109.723,113.214 108.056,112.547 106.5,111.5C 105.558,111.608 104.725,111.941 104,112.5C 103.02,110.941 102.187,109.274 101.5,107.5C 100.583,106.873 99.5832,106.539 98.5,106.5C 97.5084,106.672 96.8417,106.338 96.5,105.5C 96.1568,101.521 95.8235,97.521 95.5,93.5C 92.2551,93.1199 89.2551,91.9532 86.5,90C 87.1667,89.6667 87.8333,89.3333 88.5,89C 87.7471,87.513 86.9138,87.3463 86,88.5C 84.8333,87.3333 83.6667,86.1667 82.5,85C 81.5509,84.3828 80.7175,84.5494 80,85.5C 78.786,83.9512 77.286,82.7845 75.5,82C 78.8442,80.106 80.1776,77.2727 79.5,73.5C 77.5328,73.2606 75.6995,73.5939 74,74.5C 71.1751,73.4158 71.0085,72.2492 73.5,71C 72.2298,70.1004 71.2298,68.9337 70.5,67.5C 66.8474,66.3334 63.3474,65.6667 60,65.5C 59.781,62.2674 60.9477,59.6008 63.5,57.5C 67.225,57.8913 69.225,59.8913 69.5,63.5C 70.8221,63.67 71.9887,63.3366 73,62.5C 77.1513,65.1201 80.9847,67.4535 84.5,69.5 Z"/></g>
<g><path style="opacity:0.008" fill="#dfddde" d="M 179.5,86.5 C 181.749,87.0798 183.415,88.4131 184.5,90.5C 182.251,89.9202 180.585,88.5869 179.5,86.5 Z"/></g>
<g><path style="opacity:0.255" fill="#a7b6c3" d="M 259.5,79.5 C 256.152,83.8471 252.152,87.5137 247.5,90.5C 250.874,86.1245 254.874,82.4578 259.5,79.5 Z"/></g>
<g><path style="opacity:0.008" fill="#dcdbdc" d="M 137.5,86.5 C 139.773,86.9568 141.106,88.2901 141.5,90.5C 139.659,89.5977 138.326,88.2644 137.5,86.5 Z"/></g>
<g><path style="opacity:1" fill="#5c7494" d="M 297.5,53.5 C 298.906,53.9731 299.573,54.9731 299.5,56.5C 299.5,88.5 299.5,120.5 299.5,152.5C 298.907,175.029 297.907,197.696 296.5,220.5C 294.684,221.735 293.017,221.735 291.5,220.5C 292.568,219.566 293.901,219.232 295.5,219.5C 295.907,213.036 296.407,206.703 297,200.5C 297.833,153.163 297.667,105.83 296.5,58.5C 293.227,57.4149 289.894,57.2483 286.5,58C 285.529,59.4813 284.196,60.3146 282.5,60.5C 283.833,58.8333 285.167,57.1667 286.5,55.5C 290.015,54.0807 293.681,53.414 297.5,53.5 Z"/></g>
<g><path style="opacity:0.369" fill="#c3d4df" d="M 74.5,90.5 C 78.1002,92.4302 81.1002,95.0969 83.5,98.5C 79.8998,96.5698 76.8998,93.9031 74.5,90.5 Z"/></g>
<g><path style="opacity:0.231" fill="#dad8d9" d="M 141.5,90.5 C 143.062,90.7329 144.395,91.3995 145.5,92.5C 146.167,93.5 146.833,94.5 147.5,95.5C 144.911,94.5806 142.911,92.914 141.5,90.5 Z"/></g>
<g><path style="opacity:0.18" fill="#a6b6c3" d="M 247.5,90.5 C 244.393,94.2153 240.727,97.2153 236.5,99.5C 239.607,95.7847 243.273,92.7847 247.5,90.5 Z"/></g>
<g><path style="opacity:0.478" fill="#afbdca" d="M 46.5,89.5 C 48.2624,90.2623 49.2624,91.5956 49.5,93.5C 47.5544,92.9653 46.5544,91.632 46.5,89.5 Z"/></g>
<g><path style="opacity:0.991" fill="#6a8ba4" d="M 61.5,77.5 C 63.5504,77.9612 65.5504,78.6279 67.5,79.5C 70.8333,82.5 74.1667,85.5 77.5,88.5C 81.6898,88.5109 84.6898,90.3442 86.5,94C 86.3552,94.772 86.0219,95.4387 85.5,96C 90.3909,97.2818 92.7243,100.448 92.5,105.5C 93.8333,105.5 95.1667,105.5 96.5,105.5C 96.8417,106.338 97.5084,106.672 98.5,106.5C 100.534,109.918 102.534,113.251 104.5,116.5C 101.105,113.098 97.438,110.098 93.5,107.5C 92.5084,107.672 91.8417,107.338 91.5,106.5C 89.8333,102.833 87.1667,100.167 83.5,98.5C 81.1002,95.0969 78.1002,92.4302 74.5,90.5C 72.4309,87.4275 69.7642,85.0941 66.5,83.5C 66.1667,81.1667 64.8333,79.8333 62.5,79.5C 62.1667,78.8333 61.8333,78.1667 61.5,77.5 Z"/></g>
<g><path style="opacity:0.22" fill="#b2c2d2" d="M 113.5,90.5 C 116.089,91.4194 118.089,93.086 119.5,95.5C 116.712,94.7735 114.712,93.1068 113.5,90.5 Z"/></g>
<g><path style="opacity:0.506" fill="#888788" d="M 184.5,90.5 C 186.5,91.8333 188.167,93.5 189.5,95.5C 186.5,95.1667 184.833,93.5 184.5,90.5 Z"/></g>
<g><path style="opacity:0.329" fill="#c0ccd6" d="M 37.5,82.5 C 34.4816,82.3354 31.4816,82.502 28.5,83C 27.7476,83.6708 27.4142,84.5041 27.5,85.5C 26.3608,122.996 25.6941,160.662 25.5,198.5C 25.1667,198.5 24.8333,198.5 24.5,198.5C 24.1158,160.151 24.6158,121.817 26,83.5C 29.5228,79.8333 33.3561,79.5 37.5,82.5 Z"/></g>
<g><path style="opacity:0.063" fill="#d6e2ef" d="M 49.5,93.5 C 51.1042,94.287 51.7709,95.6203 51.5,97.5C 50.3263,96.4863 49.6596,95.153 49.5,93.5 Z"/></g>
<g><path style="opacity:0.886" fill="#555354" d="M 145.5,92.5 C 149.126,94.4593 152.126,97.126 154.5,100.5C 153.833,100.5 153.167,100.5 152.5,100.5C 151.5,100.167 150.833,99.5 150.5,98.5C 149.833,97.1667 148.833,96.1667 147.5,95.5C 146.833,94.5 146.167,93.5 145.5,92.5 Z"/></g>
<g><path style="opacity:0.02" fill="#eae9e9" d="M 147.5,95.5 C 148.833,96.1667 149.833,97.1667 150.5,98.5C 148.5,98.5 147.5,97.5 147.5,95.5 Z"/></g>
<g><path style="opacity:0.016" fill="#d5d5d5" d="M 191.5,97.5 C 194.5,98.5 196.5,100.5 197.5,103.5C 197.167,103.5 196.833,103.5 196.5,103.5C 194.833,101.5 193.167,99.5 191.5,97.5 Z"/></g>
<g><path style="opacity:0.416" fill="#baccd4" d="M 83.5,98.5 C 87.1667,100.167 89.8333,102.833 91.5,106.5C 88.5,104.167 85.8333,101.5 83.5,98.5 Z"/></g>
<g><path style="opacity:0.22" fill="#dcdadb" d="M 152.5,100.5 C 153.167,100.5 153.833,100.5 154.5,100.5C 156.5,102.833 158.5,105.167 160.5,107.5C 157.236,105.906 154.569,103.573 152.5,100.5 Z"/></g>
<g><path style="opacity:0.235" fill="#b4c1c8" d="M 236.5,99.5 C 233.718,103.396 234.051,107.063 237.5,110.5C 234.713,109.622 233.38,107.622 233.5,104.5C 233.286,102.058 234.286,100.392 236.5,99.5 Z"/></g>
<g><path style="opacity:0.325" fill="#bdcdd9" d="M 93.5,107.5 C 97.438,110.098 101.105,113.098 104.5,116.5C 104.5,116.833 104.5,117.167 104.5,117.5C 100.229,114.899 96.5628,111.566 93.5,107.5 Z"/></g>
<g><path style="opacity:0.196" fill="#bbbbbb" d="M 160.5,107.5 C 163.089,108.419 165.089,110.086 166.5,112.5C 163.911,111.581 161.911,109.914 160.5,107.5 Z"/></g>
<g><path style="opacity:0.016" fill="#dedede" d="M 197.5,108.5 C 196.833,111.167 195.167,112.833 192.5,113.5C 193.833,111.5 195.5,109.833 197.5,108.5 Z"/></g>
<g><path style="opacity:1" fill="#618ab0" d="M 122.5,101.5 C 125.174,103.18 127.174,105.513 128.5,108.5C 130.794,109.706 133.127,110.706 135.5,111.5C 136.391,112.11 137.391,112.443 138.5,112.5C 138.539,113.583 138.873,114.583 139.5,115.5C 142.122,116.459 144.122,118.125 145.5,120.5C 148.024,123.627 150.357,126.96 152.5,130.5C 156.331,130.895 158.665,132.895 159.5,136.5C 156.757,135.612 154.09,134.445 151.5,133C 149.701,130.209 147.367,128.042 144.5,126.5C 143.786,123.973 143.12,121.473 142.5,119C 138.914,117.892 135.247,117.392 131.5,117.5C 133.357,122.351 136.024,126.685 139.5,130.5C 138.975,131.192 138.308,131.692 137.5,132C 139.996,133.08 142.33,134.414 144.5,136C 142.117,136.065 141.45,136.898 142.5,138.5C 140.377,140.745 139.377,143.412 139.5,146.5C 140.833,146.5 142.167,146.5 143.5,146.5C 143.5,147.5 143.5,148.5 143.5,149.5C 142.833,149.5 142.167,149.5 141.5,149.5C 140.078,148.075 138.411,147.075 136.5,146.5C 135.5,146.167 134.833,145.5 134.5,144.5C 131.292,140.605 127.959,136.771 124.5,133C 122.593,131.878 120.593,131.045 118.5,130.5C 118.611,129.883 118.944,129.383 119.5,129C 115.996,126.99 113.996,123.99 113.5,120C 110.348,119.605 107.348,118.772 104.5,117.5C 104.5,117.167 104.5,116.833 104.5,116.5C 102.534,113.251 100.534,109.918 98.5,106.5C 99.5832,106.539 100.583,106.873 101.5,107.5C 102.187,109.274 103.02,110.941 104,112.5C 104.725,111.941 105.558,111.608 106.5,111.5C 108.056,112.547 109.723,113.214 111.5,113.5C 111.343,112.127 111.51,110.793 112,109.5C 113.333,106.833 114.667,106.833 116,109.5C 118.147,107.524 120.647,106.191 123.5,105.5C 122.754,104.264 122.421,102.93 122.5,101.5 Z"/></g>
<g><path style="opacity:0.157" fill="#ccdae7" d="M 133.5,107.5 C 135.5,108.833 137.167,110.5 138.5,112.5C 137.391,112.443 136.391,112.11 135.5,111.5C 134.4,110.395 133.733,109.062 133.5,107.5 Z"/></g>
<g><path style="opacity:0.545" fill="#959595" d="M 166.5,112.5 C 169.167,113.167 170.833,114.833 171.5,117.5C 169.5,116.167 167.833,114.5 166.5,112.5 Z"/></g>
<g><path style="opacity:0.384" fill="#a9b8c4" d="M 239.5,112.5 C 242.089,113.419 244.089,115.086 245.5,117.5C 242.911,116.581 240.911,114.914 239.5,112.5 Z"/></g>
<g><path style="opacity:0.415" fill="#c6d3dc" d="M 51.5,97.5 C 52.793,98.842 53.6264,100.509 54,102.5C 54.8778,106.789 55.3778,111.122 55.5,115.5C 54.5641,142.156 54.2307,168.823 54.5,195.5C 54.1667,195.5 53.8333,195.5 53.5,195.5C 53.6666,164.832 53.5,134.165 53,103.5C 51.872,101.655 51.372,99.6547 51.5,97.5 Z"/></g>
<g><path style="opacity:0.165" fill="#b9c8d6" d="M 138.5,112.5 C 143.126,115.458 147.126,119.124 150.5,123.5C 148.589,122.925 146.922,121.925 145.5,120.5C 144.122,118.125 142.122,116.459 139.5,115.5C 138.873,114.583 138.539,113.583 138.5,112.5 Z"/></g>
<g><path style="opacity:0.983" fill="#434343" d="M 196.5,103.5 C 196.833,103.5 197.167,103.5 197.5,103.5C 198.833,105.167 198.833,106.833 197.5,108.5C 195.5,109.833 193.833,111.5 192.5,113.5C 191.833,114.833 190.833,115.833 189.5,116.5C 187.251,117.08 185.585,118.413 184.5,120.5C 181.5,123.167 178.5,123.167 175.5,120.5C 177.5,120.167 179.5,119.833 181.5,119.5C 181.351,118.448 181.517,117.448 182,116.5C 183.908,119.332 184.741,118.999 184.5,115.5C 185.833,115.5 187.167,115.5 188.5,115.5C 188.84,112.856 188.173,110.523 186.5,108.5C 186.833,108.167 187.167,107.833 187.5,107.5C 189.205,109.303 191.038,109.969 193,109.5C 195.46,108.245 196.627,106.245 196.5,103.5 Z"/></g>
<g><path style="opacity:0.416" fill="#a3a3a3" d="M 171.5,117.5 C 173.404,117.738 174.738,118.738 175.5,120.5C 173.596,120.262 172.262,119.262 171.5,117.5 Z"/></g>
<g><path style="opacity:0.047" fill="#c4c4c4" d="M 189.5,116.5 C 188.415,118.587 186.749,119.92 184.5,120.5C 185.585,118.413 187.251,117.08 189.5,116.5 Z"/></g>
<g><path style="opacity:0.79" fill="#8a99a8" d="M 258.5,116.5 C 255.751,120.171 252.084,121.337 247.5,120C 246.619,119.292 245.953,118.458 245.5,117.5C 247.044,117.703 248.378,118.37 249.5,119.5C 252.259,117.878 255.259,116.878 258.5,116.5 Z"/></g>
<g><path style="opacity:0.575" fill="#9bacbe" d="M 272.5,127.5 C 271.833,143.833 271.167,160.167 270.5,176.5C 270.833,153.824 270.5,131.157 269.5,108.5C 265.815,111.191 262.148,113.858 258.5,116.5C 258.5,115.5 258.5,114.5 258.5,113.5C 260.942,113.646 261.609,112.813 260.5,111C 263.194,109.653 265.861,108.32 268.5,107C 269.5,106.333 270.5,106.333 271.5,107C 272.479,113.744 272.812,120.578 272.5,127.5 Z"/></g>
<g><path style="opacity:1" fill="#4d709a" d="M 50.5,102.5 C 51.9954,111.288 51.662,120.122 49.5,129C 50.8273,150.842 50.8273,172.675 49.5,194.5C 45.767,194.734 43.9337,196.734 44,200.5C 42.6054,199.185 41.6054,199.519 41,201.5C 36.4858,197.946 35.3191,193.446 37.5,188C 37.2503,184.584 36.5836,181.251 35.5,178C 36.1159,168.278 36.7826,158.612 37.5,149C 37.479,144.054 37.1457,139.054 36.5,134C 37.0682,132.128 37.7349,130.295 38.5,128.5C 37.9747,127.808 37.3081,127.308 36.5,127C 37.2638,124.931 37.7638,122.764 38,120.5C 38.7175,119.549 39.5509,119.383 40.5,120C 41.1466,121.609 41.98,123.109 43,124.5C 43.6667,139.833 43.6667,155.167 43,170.5C 40.6498,174.741 39.1498,179.241 38.5,184C 40.5164,186.718 42.3497,189.551 44,192.5C 45.3316,191.838 46.4982,190.672 47.5,189C 47.0426,188.586 46.7093,188.086 46.5,187.5C 48.0156,183.454 49.0156,179.287 49.5,175C 48.5217,171.183 47.355,167.35 46,163.5C 45.7632,154.692 45.5966,146.026 45.5,137.5C 45.8333,135.5 46.1667,133.5 46.5,131.5C 47.2811,132.729 47.7811,134.062 48,135.5C 48.1298,131.049 48.7964,126.716 50,122.5C 50.4996,115.842 50.6663,109.175 50.5,102.5 Z"/></g>
<g><path style="opacity:1" fill="#879fb7" d="M 104.5,117.5 C 107.348,118.772 110.348,119.605 113.5,120C 113.996,123.99 115.996,126.99 119.5,129C 118.944,129.383 118.611,129.883 118.5,130.5C 113.206,126.873 108.539,122.54 104.5,117.5 Z"/></g>
<g><path style="opacity:1" fill="#4d71a0" d="M 50.5,102.5 C 50.6663,109.175 50.4996,115.842 50,122.5C 48.7964,126.716 48.1298,131.049 48,135.5C 47.7811,134.062 47.2811,132.729 46.5,131.5C 46.1667,133.5 45.8333,135.5 45.5,137.5C 45.5966,146.026 45.7632,154.692 46,163.5C 47.355,167.35 48.5217,171.183 49.5,175C 49.0156,179.287 48.0156,183.454 46.5,187.5C 46.7093,188.086 47.0426,188.586 47.5,189C 46.4982,190.672 45.3316,191.838 44,192.5C 42.3497,189.551 40.5164,186.718 38.5,184C 39.1498,179.241 40.6498,174.741 43,170.5C 43.6667,155.167 43.6667,139.833 43,124.5C 41.98,123.109 41.1466,121.609 40.5,120C 39.5509,119.383 38.7175,119.549 38,120.5C 37.7638,122.764 37.2638,124.931 36.5,127C 37.3081,127.308 37.9747,127.808 38.5,128.5C 37.7349,130.295 37.0682,132.128 36.5,134C 37.1457,139.054 37.479,144.054 37.5,149C 36.7826,158.612 36.1159,168.278 35.5,178C 36.5836,181.251 37.2503,184.584 37.5,188C 35.3191,193.446 36.4858,197.946 41,201.5C 41.6054,199.519 42.6054,199.185 44,200.5C 43.9337,196.734 45.767,194.734 49.5,194.5C 50.9063,194.973 51.573,195.973 51.5,197.5C 51.5,198.833 51.5,200.167 51.5,201.5C 54.1873,201.664 56.854,201.497 59.5,201C 60.3041,199.229 61.4708,197.729 63,196.5C 64.6548,198.747 64.9881,201.08 64,203.5C 64.7504,204.126 65.5838,204.626 66.5,205C 66.1667,205.333 65.8333,205.667 65.5,206C 68.1222,206.923 70.6222,208.089 73,209.5C 73.6397,211.265 73.4731,212.932 72.5,214.5C 69.864,216.6 67.0307,217.267 64,216.5C 60.2485,226.412 53.0819,232.078 42.5,233.5C 42.128,237.043 40.128,239.21 36.5,240C 37.428,240.388 38.0946,241.055 38.5,242C 36.4809,245.179 33.8142,247.679 30.5,249.5C 29.914,249.291 29.414,248.957 29,248.5C 28.2209,196.298 28.7209,144.131 30.5,92C 29.0182,89.3272 29.1849,86.8272 31,84.5C 34.2505,86.2051 34.0838,87.7051 30.5,89C 32.5358,90.306 34.5358,90.4727 36.5,89.5C 38.9066,91.5713 41.5732,93.238 44.5,94.5C 46.327,97.3856 48.327,100.052 50.5,102.5 Z"/></g>
<g><path style="opacity:0.89" fill="#9bafc2" d="M 118.5,130.5 C 120.593,131.045 122.593,131.878 124.5,133C 127.959,136.771 131.292,140.605 134.5,144.5C 128.865,140.199 123.532,135.533 118.5,130.5 Z"/></g>
<g><path style="opacity:0.004" fill="#cadbe9" d="M 163.5,135.5 C 165.749,136.08 167.415,137.413 168.5,139.5C 166.251,138.92 164.585,137.587 163.5,135.5 Z"/></g>
<g><path style="opacity:0.112" fill="#aab9ce" d="M 299.5,56.5 C 300.655,59.2626 301.322,62.2626 301.5,65.5C 300.864,95.9901 300.197,126.323 299.5,156.5C 299.5,155.167 299.5,153.833 299.5,152.5C 299.5,120.5 299.5,88.5 299.5,56.5 Z"/></g>
<g><path style="opacity:0.839" fill="#859db2" d="M 145.5,120.5 C 146.922,121.925 148.589,122.925 150.5,123.5C 155.445,126.811 159.778,130.811 163.5,135.5C 164.585,137.587 166.251,138.92 168.5,139.5C 173.193,143.861 177.859,148.195 182.5,152.5C 180.938,152.267 179.605,151.6 178.5,150.5C 176.433,149.737 174.766,148.404 173.5,146.5C 172.914,146.709 172.414,147.043 172,147.5C 171.837,145.324 171.004,143.491 169.5,142C 166.279,139.943 162.946,138.109 159.5,136.5C 158.665,132.895 156.331,130.895 152.5,130.5C 150.357,126.96 148.024,123.627 145.5,120.5 Z"/></g>
<g><path style="opacity:1" fill="#506d90" d="M 282.5,60.5 C 282.513,64.6501 280.513,67.1501 276.5,68C 275.506,69.3287 274.506,70.662 273.5,72C 274.424,73.15 274.424,74.15 273.5,75C 271.167,75.3333 268.833,75.6667 266.5,76C 265.809,77.0674 265.309,78.2341 265,79.5C 255.414,86.332 246.914,94.332 239.5,103.5C 242.729,106.293 245.229,109.627 247,113.5C 247.561,112.978 248.228,112.645 249,112.5C 251.047,113.609 253.213,114.276 255.5,114.5C 255.5,113.5 255.5,112.5 255.5,111.5C 256.5,111.5 257.5,111.5 258.5,111.5C 259.629,108.851 261.629,106.018 264.5,103C 262.913,102.138 261.246,101.471 259.5,101C 261,100.167 262.167,99 263,97.5C 264.87,100.574 267.203,103.241 270,105.5C 272.185,104.242 274.352,104.242 276.5,105.5C 277.763,107.955 278.763,110.288 279.5,112.5C 276.321,116.229 274.821,120.563 275,125.5C 274.469,150.326 273.969,174.993 273.5,199.5C 272.833,198.5 272.167,197.5 271.5,196.5C 271.5,196.167 271.5,195.833 271.5,195.5C 272.26,172.842 272.593,150.175 272.5,127.5C 272.812,120.578 272.479,113.744 271.5,107C 270.5,106.333 269.5,106.333 268.5,107C 265.861,108.32 263.194,109.653 260.5,111C 261.609,112.813 260.942,113.646 258.5,113.5C 258.5,114.5 258.5,115.5 258.5,116.5C 255.259,116.878 252.259,117.878 249.5,119.5C 248.378,118.37 247.044,117.703 245.5,117.5C 244.089,115.086 242.089,113.419 239.5,112.5C 238.5,112.167 237.833,111.5 237.5,110.5C 234.051,107.063 233.718,103.396 236.5,99.5C 240.727,97.2153 244.393,94.2153 247.5,90.5C 252.152,87.5137 256.152,83.8471 259.5,79.5C 267.439,73.5673 275.105,67.2339 282.5,60.5 Z"/></g>
<g><path style="opacity:0.412" fill="#aec2d5" d="M 136.5,146.5 C 138.411,147.075 140.078,148.075 141.5,149.5C 143.167,151.5 144.833,153.5 146.5,155.5C 142.564,153.234 139.231,150.234 136.5,146.5 Z"/></g>
<g><path style="opacity:0.349" fill="#bcccd9" d="M 148.5,157.5 C 153.105,160.436 157.105,164.102 160.5,168.5C 155.895,165.564 151.895,161.898 148.5,157.5 Z"/></g>
<g><path style="opacity:0.176" fill="#bacbd8" d="M 182.5,152.5 C 187.065,156.277 191.398,160.277 195.5,164.5C 192.732,162.913 190.065,161.08 187.5,159C 185.21,157.223 183.543,155.056 182.5,152.5 Z"/></g>
<g><path style="opacity:0.805" fill="#7289a5" d="M 272.5,127.5 C 272.593,150.175 272.26,172.842 271.5,195.5C 270.51,189.355 270.177,183.022 270.5,176.5C 271.167,160.167 271.833,143.833 272.5,127.5 Z"/></g>
<g><path style="opacity:0.255" fill="#c0d2df" d="M 164.5,172.5 C 167.764,174.094 170.431,176.427 172.5,179.5C 169.236,177.906 166.569,175.573 164.5,172.5 Z"/></g>
<g><path style="opacity:0.412" fill="#aabad2" d="M 86.5,176.5 C 83.4299,176.368 80.4299,176.701 77.5,177.5C 80.2645,174.261 83.2645,173.928 86.5,176.5 Z"/></g>
<g><path style="opacity:1" fill="#6a89a5" d="M 141.5,149.5 C 142.167,149.5 142.833,149.5 143.5,149.5C 144.287,151.104 145.62,151.771 147.5,151.5C 147.874,154.888 149.874,156.722 153.5,157C 156.174,159.809 158.507,162.809 160.5,166C 162.591,167.675 164.758,168.175 167,167.5C 168.312,169.955 169.478,172.455 170.5,175C 174.075,177.229 177.408,179.895 180.5,183C 182.949,183.725 185.283,184.725 187.5,186C 186.542,187.147 186.875,188.147 188.5,189C 190.217,190.559 192.217,191.392 194.5,191.5C 195.217,194.323 196.217,196.99 197.5,199.5C 198.552,199.351 199.552,199.517 200.5,200C 203.399,203.665 206.399,207.165 209.5,210.5C 208.167,210.167 206.833,209.833 205.5,209.5C 203.5,208.167 201.833,206.5 200.5,204.5C 198.431,201.427 195.764,199.094 192.5,197.5C 190.431,194.427 187.764,192.094 184.5,190.5C 183.167,188.5 181.5,186.833 179.5,185.5C 178.089,183.086 176.089,181.419 173.5,180.5C 172.833,180.5 172.5,180.167 172.5,179.5C 170.431,176.427 167.764,174.094 164.5,172.5C 162.833,171.5 161.5,170.167 160.5,168.5C 157.105,164.102 153.105,160.436 148.5,157.5C 147.5,157.167 146.833,156.5 146.5,155.5C 144.833,153.5 143.167,151.5 141.5,149.5 Z"/></g>
<g><path style="opacity:0.275" fill="#c1d1db" d="M 173.5,180.5 C 176.089,181.419 178.089,183.086 179.5,185.5C 176.911,184.581 174.911,182.914 173.5,180.5 Z"/></g>
<g><path style="opacity:0.404" fill="#aeb7c9" d="M 76.5,177.5 C 75.9202,179.749 74.5869,181.415 72.5,182.5C 72.1667,182.5 71.8333,182.5 71.5,182.5C 72.8333,180.5 74.5,178.833 76.5,177.5 Z"/></g>
<g><path style="opacity:0.204" fill="#bdccda" d="M 87.5,176.5 C 92.1256,179.458 96.1256,183.124 99.5,187.5C 97.5887,186.925 95.922,185.925 94.5,184.5C 91.4569,182.457 89.1236,179.79 87.5,176.5 Z"/></g>
<g><path style="opacity:0.651" fill="#787777" d="M 148.5,183.5 C 148.5,183.833 148.5,184.167 148.5,184.5C 145.871,183.286 143.204,183.286 140.5,184.5C 140.5,184.167 140.5,183.833 140.5,183.5C 143.167,180.833 145.833,180.833 148.5,183.5 Z"/></g>
<g><path style="opacity:0.208" fill="#b5c8d3" d="M 212.5,180.5 C 214.754,181.124 216.421,182.457 217.5,184.5C 215.205,183.864 213.539,182.531 212.5,180.5 Z"/></g>
<g><path style="opacity:0.059" fill="#c4c4c4" d="M 148.5,184.5 C 148.5,184.167 148.5,183.833 148.5,183.5C 150.027,183.427 151.027,184.094 151.5,185.5C 150.391,185.443 149.391,185.11 148.5,184.5 Z"/></g>
<g><path style="opacity:0.443" fill="#a2a1a1" d="M 140.5,183.5 C 140.5,183.833 140.5,184.167 140.5,184.5C 139.18,185.942 137.514,186.608 135.5,186.5C 136.899,185.11 138.566,184.11 140.5,183.5 Z"/></g>
<g><path style="opacity:0.027" fill="#c5d4e2" d="M 179.5,185.5 C 181.5,186.833 183.167,188.5 184.5,190.5C 181.833,189.833 180.167,188.167 179.5,185.5 Z"/></g>
<g><path style="opacity:0.816" fill="#716f70" d="M 151.5,185.5 C 153.167,186.5 154.5,187.833 155.5,189.5C 152.858,189.512 151.525,188.179 151.5,185.5 Z"/></g>
<g><path style="opacity:1" fill="#7291ae" d="M 178.5,150.5 C 179.605,151.6 180.938,152.267 182.5,152.5C 183.543,155.056 185.21,157.223 187.5,159C 190.065,161.08 192.732,162.913 195.5,164.5C 201.87,169.207 207.536,174.54 212.5,180.5C 213.539,182.531 215.205,183.864 217.5,184.5C 220.207,186.843 222.874,189.177 225.5,191.5C 225.557,192.609 225.89,193.609 226.5,194.5C 222.597,192.348 218.264,191.181 213.5,191C 212.284,189.406 210.951,187.906 209.5,186.5C 211.639,182.018 210.305,179.185 205.5,178C 206.451,177.282 206.617,176.449 206,175.5C 202.551,171.977 198.385,169.977 193.5,169.5C 193.762,168.022 193.429,166.689 192.5,165.5C 189.402,162.071 185.735,159.404 181.5,157.5C 179.918,155.423 178.918,153.09 178.5,150.5 Z"/></g>
<g><path style="opacity:0.068" fill="#dce7f3" d="M 270.5,176.5 C 270.177,183.022 270.51,189.355 271.5,195.5C 271.5,195.833 271.5,196.167 271.5,196.5C 271.5,198.5 271.5,200.5 271.5,202.5C 270.035,197.41 269.368,192.077 269.5,186.5C 269.502,182.982 269.835,179.649 270.5,176.5 Z"/></g>
<g><path style="opacity:0.478" fill="#979797" d="M 135.5,186.5 C 134.167,189.833 131.833,192.167 128.5,193.5C 130.5,190.833 132.833,188.5 135.5,186.5 Z"/></g>
<g><path style="opacity:0.235" fill="#b8cad6" d="M 184.5,190.5 C 187.764,192.094 190.431,194.427 192.5,197.5C 189.236,195.906 186.569,193.573 184.5,190.5 Z"/></g>
<g><path style="opacity:0.878" fill="#5f5d5e" d="M 155.5,189.5 C 156.833,190.167 157.833,191.167 158.5,192.5C 158.5,192.833 158.5,193.167 158.5,193.5C 156.554,192.965 155.554,191.632 155.5,189.5 Z"/></g>
<g><path style="opacity:0.012" fill="#d8d7d7" d="M 158.5,193.5 C 158.5,193.167 158.5,192.833 158.5,192.5C 160.404,192.738 161.738,193.738 162.5,195.5C 160.938,195.267 159.605,194.6 158.5,193.5 Z"/></g>
<g><path style="opacity:0.212" fill="#b7c6d7" d="M 225.5,191.5 C 228.167,193.5 230.5,195.833 232.5,198.5C 230.246,197.585 228.246,196.252 226.5,194.5C 225.89,193.609 225.557,192.609 225.5,191.5 Z"/></g>
<g><path style="opacity:0.222" fill="#8d9eb0" d="M 299.5,152.5 C 299.5,153.833 299.5,155.167 299.5,156.5C 299.667,177.836 299.5,199.169 299,220.5C 297.839,222.665 296.006,223.665 293.5,223.5C 289.568,222.867 286.234,221.201 283.5,218.5C 286.006,219.75 288.673,220.416 291.5,220.5C 293.017,221.735 294.684,221.735 296.5,220.5C 297.907,197.696 298.907,175.029 299.5,152.5 Z"/></g>
<g><path style="opacity:0.435" fill="#a8a6a7" d="M 162.5,195.5 C 163.833,196.167 164.833,197.167 165.5,198.5C 163.5,198.5 162.5,197.5 162.5,195.5 Z"/></g>
<g><path style="opacity:1" fill="#7d8fa7" d="M 94.5,184.5 C 95.922,185.925 97.5887,186.925 99.5,187.5C 100.802,190.107 100.636,192.773 99,195.5C 91.2284,202.293 83.3951,208.96 75.5,215.5C 75.5,213.833 75.5,212.167 75.5,210.5C 77.1667,210.5 78.8333,210.5 80.5,210.5C 80.5,209.5 80.5,208.5 80.5,207.5C 82.6607,207.174 84.4941,206.174 86,204.5C 86.6172,203.551 86.4506,202.718 85.5,202C 86.7932,201.51 88.1266,201.343 89.5,201.5C 89.5,200.167 89.5,198.833 89.5,197.5C 93.338,196.338 96.338,194.005 98.5,190.5C 98.2528,189.287 97.5862,188.62 96.5,188.5C 95.3995,187.395 94.7329,186.062 94.5,184.5 Z"/></g>
<g><path style="opacity:0.545" fill="#838383" d="M 128.5,193.5 C 127.735,196.096 127.401,198.763 127.5,201.5C 124.691,198.526 125.024,195.859 128.5,193.5 Z"/></g>
<g><path style="opacity:0.224" fill="#b4c3d1" d="M 192.5,197.5 C 195.764,199.094 198.431,201.427 200.5,204.5C 197.236,202.906 194.569,200.573 192.5,197.5 Z"/></g>
<g><path style="opacity:1" fill="#697f9a" d="M 271.5,196.5 C 272.167,197.5 272.833,198.5 273.5,199.5C 274.616,202.344 275.616,205.344 276.5,208.5C 279.336,211.513 281.669,214.846 283.5,218.5C 279.522,216.522 276.522,213.522 274.5,209.5C 274.614,206.784 273.614,204.784 271.5,203.5C 271.5,203.167 271.5,202.833 271.5,202.5C 271.5,200.5 271.5,198.5 271.5,196.5 Z"/></g>
<g><path style="opacity:1" fill="#4e6e98" d="M 86.5,176.5 C 86.8333,176.5 87.1667,176.5 87.5,176.5C 89.1236,179.79 91.4569,182.457 94.5,184.5C 94.7329,186.062 95.3995,187.395 96.5,188.5C 97.5862,188.62 98.2528,189.287 98.5,190.5C 96.338,194.005 93.338,196.338 89.5,197.5C 89.5,198.833 89.5,200.167 89.5,201.5C 88.1266,201.343 86.7932,201.51 85.5,202C 86.4506,202.718 86.6172,203.551 86,204.5C 84.4941,206.174 82.6607,207.174 80.5,207.5C 80.5,208.5 80.5,209.5 80.5,210.5C 78.8333,210.5 77.1667,210.5 75.5,210.5C 74.886,211.515 73.886,212.848 72.5,214.5C 73.4731,212.932 73.6397,211.265 73,209.5C 70.6222,208.089 68.1222,206.923 65.5,206C 65.8333,205.667 66.1667,205.333 66.5,205C 65.5838,204.626 64.7504,204.126 64,203.5C 64.9881,201.08 64.6548,198.747 63,196.5C 61.4708,197.729 60.3041,199.229 59.5,201C 56.854,201.497 54.1873,201.664 51.5,201.5C 51.5,200.167 51.5,198.833 51.5,197.5C 53.9006,199.944 56.5672,200.111 59.5,198C 64.8996,193.684 69.2329,188.517 72.5,182.5C 74.5869,181.415 75.9202,179.749 76.5,177.5C 76.8333,177.5 77.1667,177.5 77.5,177.5C 80.4299,176.701 83.4299,176.368 86.5,176.5 Z"/></g>
<g><path style="opacity:1" fill="#4c70a3" d="M 96.5,188.5 C 96.4392,191.05 95.1059,192.55 92.5,193C 92.8333,193.333 93.1667,193.667 93.5,194C 91.9411,194.98 90.2744,195.813 88.5,196.5C 87.1468,197.524 86.4802,198.857 86.5,200.5C 84.1667,200.5 81.8333,200.5 79.5,200.5C 79.6633,198.143 79.4966,195.81 79,193.5C 75.2188,194.88 72.0521,193.546 69.5,189.5C 71.8677,188.128 73.5344,186.128 74.5,183.5C 76.2585,185.738 78.5918,186.738 81.5,186.5C 81.5,185.167 81.5,183.833 81.5,182.5C 84.2613,183.92 87.2613,184.587 90.5,184.5C 90.5,185.5 90.5,186.5 90.5,187.5C 92.5648,187.517 94.5648,187.85 96.5,188.5 Z"/></g>
<g><path style="opacity:0.016" fill="#dadada" d="M 168.5,201.5 C 170.027,201.427 171.027,202.094 171.5,203.5C 169.973,203.573 168.973,202.906 168.5,201.5 Z"/></g>
<g><path style="opacity:0.576" fill="#767676" d="M 127.5,202.5 C 131.359,203.352 134.026,205.686 135.5,209.5C 132.808,207.138 130.141,204.804 127.5,202.5 Z"/></g>
<g><path style="opacity:0.506" fill="#a9bcce" d="M 271.5,203.5 C 273.614,204.784 274.614,206.784 274.5,209.5C 273.13,207.75 272.13,205.75 271.5,203.5 Z"/></g>
<g><path style="opacity:0.506" fill="#8d8b8c" d="M 171.5,203.5 C 172.833,204.167 173.833,205.167 174.5,206.5C 173.5,206.5 172.5,206.5 171.5,206.5C 171.5,205.5 171.5,204.5 171.5,203.5 Z"/></g>
<g><path style="opacity:0.307" fill="#b6c3ce" d="M 24.5,198.5 C 24.8333,198.5 25.1667,198.5 25.5,198.5C 25.1702,215.342 25.5035,232.008 26.5,248.5C 26.4142,249.496 26.7476,250.329 27.5,251C 29.1341,251.494 30.8008,251.66 32.5,251.5C 28.1405,253.62 25.3072,252.287 24,247.5C 23.9564,231.171 24.1231,214.838 24.5,198.5 Z"/></g>
<g><path style="opacity:0.584" fill="#9a9999" d="M 174.5,206.5 C 176.5,207.833 178.167,209.5 179.5,211.5C 176.833,210.833 175.167,209.167 174.5,206.5 Z"/></g>
<g><path style="opacity:0.349" fill="#979697" d="M 135.5,209.5 C 138.089,210.419 140.089,212.086 141.5,214.5C 138.911,213.581 136.911,211.914 135.5,209.5 Z"/></g>
<g><path style="opacity:1" fill="#95aabd" d="M 205.5,209.5 C 206.833,209.833 208.167,210.167 209.5,210.5C 210.71,210.932 211.71,211.599 212.5,212.5C 212.062,212.435 211.728,212.601 211.5,213C 213.21,214.651 214.544,216.484 215.5,218.5C 211.821,215.976 208.488,212.976 205.5,209.5 Z"/></g>
<g><path style="opacity:0.059" fill="#cbcaca" d="M 179.5,211.5 C 182.089,212.419 184.089,214.086 185.5,216.5C 182.911,215.581 180.911,213.914 179.5,211.5 Z"/></g>
<g><path style="opacity:1" fill="#618ab3" d="M 159.5,136.5 C 162.946,138.109 166.279,139.943 169.5,142C 171.004,143.491 171.837,145.324 172,147.5C 172.414,147.043 172.914,146.709 173.5,146.5C 174.766,148.404 176.433,149.737 178.5,150.5C 178.918,153.09 179.918,155.423 181.5,157.5C 185.735,159.404 189.402,162.071 192.5,165.5C 193.429,166.689 193.762,168.022 193.5,169.5C 198.385,169.977 202.551,171.977 206,175.5C 206.617,176.449 206.451,177.282 205.5,178C 210.305,179.185 211.639,182.018 209.5,186.5C 210.951,187.906 212.284,189.406 213.5,191C 218.264,191.181 222.597,192.348 226.5,194.5C 228.246,196.252 230.246,197.585 232.5,198.5C 234.909,199.701 236.909,201.367 238.5,203.5C 238.859,205.371 239.859,206.871 241.5,208C 240.833,208.333 240.167,208.667 239.5,209C 242.295,210.625 244.962,212.459 247.5,214.5C 252.687,222.996 260.02,228.663 269.5,231.5C 270.87,234.312 271.87,237.312 272.5,240.5C 271.306,241.799 270.306,243.132 269.5,244.5C 268.142,243.374 266.808,243.374 265.5,244.5C 265.709,245.086 266.043,245.586 266.5,246C 264.833,246.333 263.167,246.667 261.5,247C 260.052,252.21 257.718,252.71 254.5,248.5C 253.914,248.709 253.414,249.043 253,249.5C 252.539,246.796 251.039,244.296 248.5,242C 239.726,236.295 231.392,230.128 223.5,223.5C 223.657,222.127 223.49,220.793 223,219.5C 219.385,217.28 215.885,214.947 212.5,212.5C 211.71,211.599 210.71,210.932 209.5,210.5C 206.399,207.165 203.399,203.665 200.5,200C 199.552,199.517 198.552,199.351 197.5,199.5C 196.217,196.99 195.217,194.323 194.5,191.5C 192.217,191.392 190.217,190.559 188.5,189C 186.875,188.147 186.542,187.147 187.5,186C 185.283,184.725 182.949,183.725 180.5,183C 177.408,179.895 174.075,177.229 170.5,175C 169.478,172.455 168.312,169.955 167,167.5C 164.758,168.175 162.591,167.675 160.5,166C 158.507,162.809 156.174,159.809 153.5,157C 149.874,156.722 147.874,154.888 147.5,151.5C 145.62,151.771 144.287,151.104 143.5,149.5C 143.5,148.5 143.5,147.5 143.5,146.5C 142.167,146.5 140.833,146.5 139.5,146.5C 139.377,143.412 140.377,140.745 142.5,138.5C 141.45,136.898 142.117,136.065 144.5,136C 142.33,134.414 139.996,133.08 137.5,132C 138.308,131.692 138.975,131.192 139.5,130.5C 136.024,126.685 133.357,122.351 131.5,117.5C 135.247,117.392 138.914,117.892 142.5,119C 143.12,121.473 143.786,123.973 144.5,126.5C 147.367,128.042 149.701,130.209 151.5,133C 154.09,134.445 156.757,135.612 159.5,136.5 Z"/></g>
<g><path style="opacity:0.467" fill="#8d8d8d" d="M 143.5,216.5 C 145.5,216.5 146.5,217.5 146.5,219.5C 145.167,218.833 144.167,217.833 143.5,216.5 Z"/></g>
<g><path style="opacity:0.427" fill="#9c9b9c" d="M 185.5,216.5 C 187.833,218.167 189.833,220.167 191.5,222.5C 188.5,221.5 186.5,219.5 185.5,216.5 Z"/></g>
<g><path style="opacity:0.949" fill="#9aaabc" d="M 75.5,215.5 C 72.5256,218.138 69.5256,220.805 66.5,223.5C 67.4132,221.914 67.4132,220.414 66.5,219C 69.7643,218.362 72.7643,217.196 75.5,215.5 Z"/></g>
<g><path style="opacity:0.868" fill="#72839a" d="M 27.5,85.5 C 27.2926,139.834 26.9592,194.168 26.5,248.5C 25.5035,232.008 25.1702,215.342 25.5,198.5C 25.6941,160.662 26.3608,122.996 27.5,85.5 Z"/></g>
<g><path style="opacity:0.337" fill="#a4a4a4" d="M 146.5,219.5 C 149.089,220.419 151.089,222.086 152.5,224.5C 149.911,223.581 147.911,221.914 146.5,219.5 Z"/></g>
<g><path style="opacity:0.251" fill="#c2d0da" d="M 217.5,220.5 C 220.5,221.5 222.5,223.5 223.5,226.5C 221.167,224.833 219.167,222.833 217.5,220.5 Z"/></g>
<g><path style="opacity:0.51" fill="#908f90" d="M 152.5,224.5 C 156.771,227.101 160.437,230.434 163.5,234.5C 159.229,231.899 155.563,228.566 152.5,224.5 Z"/></g>
<g><path style="opacity:0.008" fill="#d1d1d2" d="M 193.5,224.5 C 195.027,224.427 196.027,225.094 196.5,226.5C 194.973,226.573 193.973,225.906 193.5,224.5 Z"/></g>
<g><path style="opacity:0.02" fill="#c1d1d9" d="M 66.5,223.5 C 65.4206,225.543 63.754,226.876 61.5,227.5C 62.5387,225.469 64.2054,224.136 66.5,223.5 Z"/></g>
<g><path style="opacity:0.416" fill="#9a9a9a" d="M 196.5,226.5 C 198.167,227.5 199.5,228.833 200.5,230.5C 198.167,230.167 196.833,228.833 196.5,226.5 Z"/></g>
<g><path style="opacity:0.322" fill="#becfda" d="M 225.5,227.5 C 230.105,230.436 234.105,234.102 237.5,238.5C 232.895,235.564 228.895,231.898 225.5,227.5 Z"/></g>
<g><path style="opacity:0.976" fill="#849cb0" d="M 238.5,203.5 C 249.063,212.609 259.397,221.942 269.5,231.5C 260.02,228.663 252.687,222.996 247.5,214.5C 244.962,212.459 242.295,210.625 239.5,209C 240.167,208.667 240.833,208.333 241.5,208C 239.859,206.871 238.859,205.371 238.5,203.5 Z"/></g>
<g><path style="opacity:0.149" fill="#b4c0cc" d="M 60.5,228.5 C 58.4509,231.55 55.7843,233.883 52.5,235.5C 52.5106,233.983 53.1772,232.816 54.5,232C 56.4048,230.579 58.4048,229.412 60.5,228.5 Z"/></g>
<g><path style="opacity:0.455" fill="#908e8f" d="M 164.5,235.5 C 168.436,237.766 171.769,240.766 174.5,244.5C 170.564,242.234 167.231,239.234 164.5,235.5 Z"/></g>
<g><path style="opacity:0.31" fill="#a3a2a2" d="M 205.5,234.5 C 207.5,235.833 209.167,237.5 210.5,239.5C 207.833,238.833 206.167,237.167 205.5,234.5 Z"/></g>
<g><path style="opacity:1" fill="#222122" d="M 148.5,184.5 C 149.391,185.11 150.391,185.443 151.5,185.5C 151.525,188.179 152.858,189.512 155.5,189.5C 155.554,191.632 156.554,192.965 158.5,193.5C 159.605,194.6 160.938,195.267 162.5,195.5C 162.5,197.5 163.5,198.5 165.5,198.5C 166.833,199.167 167.833,200.167 168.5,201.5C 168.973,202.906 169.973,203.573 171.5,203.5C 171.5,204.5 171.5,205.5 171.5,206.5C 172.5,206.5 173.5,206.5 174.5,206.5C 175.167,209.167 176.833,210.833 179.5,211.5C 180.911,213.914 182.911,215.581 185.5,216.5C 186.5,219.5 188.5,221.5 191.5,222.5C 192.5,222.833 193.167,223.5 193.5,224.5C 193.973,225.906 194.973,226.573 196.5,226.5C 196.833,228.833 198.167,230.167 200.5,230.5C 202.191,231.864 203.858,233.197 205.5,234.5C 206.167,237.167 207.833,238.833 210.5,239.5C 211.167,242.167 212.833,243.833 215.5,244.5C 217.754,245.124 219.421,246.457 220.5,248.5C 220.5,250.5 221.5,251.5 223.5,251.5C 223.5,253.5 224.5,254.5 226.5,254.5C 227.865,256.86 229.865,258.527 232.5,259.5C 232.694,261.912 234.027,262.912 236.5,262.5C 236.427,264.027 237.094,265.027 238.5,265.5C 240.469,269.484 239.469,272.317 235.5,274C 190.168,274.5 144.835,274.667 99.5,274.5C 96.6146,274.806 93.9479,274.473 91.5,273.5C 91.0269,272.094 90.0269,271.427 88.5,271.5C 87.1667,269.5 87.1667,267.5 88.5,265.5C 90.5,264.167 92.1667,262.5 93.5,260.5C 98.5244,256.47 103.524,252.47 108.5,248.5C 114.833,248.5 121.167,248.5 127.5,248.5C 129.833,248.5 132.167,248.5 134.5,248.5C 148.661,249.661 162.994,249.827 177.5,249C 178.985,247.244 178.652,246.077 176.5,245.5C 176.158,244.662 175.492,244.328 174.5,244.5C 171.769,240.766 168.436,237.766 164.5,235.5C 163.833,235.5 163.5,235.167 163.5,234.5C 160.437,230.434 156.771,227.101 152.5,224.5C 151.089,222.086 149.089,220.419 146.5,219.5C 146.5,217.5 145.5,216.5 143.5,216.5C 142.167,216.5 141.5,215.833 141.5,214.5C 140.089,212.086 138.089,210.419 135.5,209.5C 134.026,205.686 131.359,203.352 127.5,202.5C 127.5,202.167 127.5,201.833 127.5,201.5C 127.401,198.763 127.735,196.096 128.5,193.5C 131.833,192.167 134.167,189.833 135.5,186.5C 137.514,186.608 139.18,185.942 140.5,184.5C 143.204,183.286 145.871,183.286 148.5,184.5 Z"/></g>
<g><path style="opacity:1" fill="#566f8f" d="M 37.5,82.5 C 38.1293,84.9971 39.796,86.3304 42.5,86.5C 43.2623,88.2624 44.5956,89.2624 46.5,89.5C 46.5544,91.632 47.5544,92.9653 49.5,93.5C 49.6596,95.153 50.3263,96.4863 51.5,97.5C 51.372,99.6547 51.872,101.655 53,103.5C 53.5,134.165 53.6666,164.832 53.5,195.5C 53.8425,197.225 54.8425,197.725 56.5,197C 62.0031,192.663 67.0031,187.83 71.5,182.5C 71.8333,182.5 72.1667,182.5 72.5,182.5C 69.2329,188.517 64.8996,193.684 59.5,198C 56.5672,200.111 53.9006,199.944 51.5,197.5C 51.573,195.973 50.9063,194.973 49.5,194.5C 50.8273,172.675 50.8273,150.842 49.5,129C 51.662,120.122 51.9954,111.288 50.5,102.5C 48.327,100.052 46.327,97.3856 44.5,94.5C 41.5732,93.238 38.9066,91.5713 36.5,89.5C 34.5358,90.4727 32.5358,90.306 30.5,89C 34.0838,87.7051 34.2505,86.2051 31,84.5C 29.1849,86.8272 29.0182,89.3272 30.5,92C 28.7209,144.131 28.2209,196.298 29,248.5C 29.414,248.957 29.914,249.291 30.5,249.5C 33.8142,247.679 36.4809,245.179 38.5,242C 38.0946,241.055 37.428,240.388 36.5,240C 40.128,239.21 42.128,237.043 42.5,233.5C 53.0819,232.078 60.2485,226.412 64,216.5C 67.0307,217.267 69.864,216.6 72.5,214.5C 73.886,212.848 74.886,211.515 75.5,210.5C 75.5,212.167 75.5,213.833 75.5,215.5C 72.7643,217.196 69.7643,218.362 66.5,219C 67.4132,220.414 67.4132,221.914 66.5,223.5C 64.2054,224.136 62.5387,225.469 61.5,227.5C 61.5,228.167 61.1667,228.5 60.5,228.5C 58.4048,229.412 56.4048,230.579 54.5,232C 53.1772,232.816 52.5106,233.983 52.5,235.5C 52.5,236.167 52.1667,236.5 51.5,236.5C 49.5648,237.15 47.5648,237.483 45.5,237.5C 45.6495,238.552 45.4828,239.552 45,240.5C 42.8707,239.137 42.3707,239.471 43.5,241.5C 39.8254,244.508 36.4921,247.841 33.5,251.5C 33.1667,251.5 32.8333,251.5 32.5,251.5C 30.8008,251.66 29.1341,251.494 27.5,251C 26.7476,250.329 26.4142,249.496 26.5,248.5C 26.9592,194.168 27.2926,139.834 27.5,85.5C 27.4142,84.5041 27.7476,83.6708 28.5,83C 31.4816,82.502 34.4816,82.3354 37.5,82.5 Z"/></g>
<g><path style="opacity:0.294" fill="#aabaca" d="M 71.5,182.5 C 67.0031,187.83 62.0031,192.663 56.5,197C 54.8425,197.725 53.8425,197.225 53.5,195.5C 53.8333,195.5 54.1667,195.5 54.5,195.5C 60.4699,191.526 66.1366,187.193 71.5,182.5 Z"/></g>
<g><path style="opacity:0.957" fill="#96a5b5" d="M 51.5,236.5 C 46.1091,242.224 40.1091,247.224 33.5,251.5C 36.4921,247.841 39.8254,244.508 43.5,241.5C 42.3707,239.471 42.8707,239.137 45,240.5C 45.4828,239.552 45.6495,238.552 45.5,237.5C 47.5648,237.483 49.5648,237.15 51.5,236.5 Z"/></g>
<g><path style="opacity:0.525" fill="#929292" d="M 210.5,239.5 C 212.5,240.833 214.167,242.5 215.5,244.5C 212.833,243.833 211.167,242.167 210.5,239.5 Z"/></g>
<g><path style="opacity:0.706" fill="#b6c5d1" d="M 269.5,231.5 C 273.621,234.69 274.787,238.69 273,243.5C 271.871,245.141 270.371,246.141 268.5,246.5C 268.833,245.833 269.167,245.167 269.5,244.5C 270.306,243.132 271.306,241.799 272.5,240.5C 271.87,237.312 270.87,234.312 269.5,231.5 Z"/></g>
<g><path style="opacity:0.463" fill="#9d9d9d" d="M 127.5,247.5 C 127.5,247.833 127.5,248.167 127.5,248.5C 121.167,248.5 114.833,248.5 108.5,248.5C 112.054,247.016 115.888,246.349 120,246.5C 122.69,246.503 125.19,246.836 127.5,247.5 Z"/></g>
<g><path style="opacity:0.125" fill="#d4d3d4" d="M 174.5,244.5 C 175.492,244.328 176.158,244.662 176.5,245.5C 176.5,246.5 176.5,247.5 176.5,248.5C 162.5,248.5 148.5,248.5 134.5,248.5C 132.167,248.5 129.833,248.5 127.5,248.5C 127.5,248.167 127.5,247.833 127.5,247.5C 143.514,247.833 159.514,247.499 175.5,246.5C 175.137,245.817 174.804,245.15 174.5,244.5 Z"/></g>
<g><path style="opacity:0.792" fill="#373636" d="M 176.5,245.5 C 178.652,246.077 178.985,247.244 177.5,249C 162.994,249.827 148.661,249.661 134.5,248.5C 148.5,248.5 162.5,248.5 176.5,248.5C 176.5,247.5 176.5,246.5 176.5,245.5 Z"/></g>
<g><path style="opacity:0.439" fill="#9b9b9d" d="M 220.5,248.5 C 221.833,249.167 222.833,250.167 223.5,251.5C 221.5,251.5 220.5,250.5 220.5,248.5 Z"/></g>
<g><path style="opacity:1" fill="#6e8ca4" d="M 212.5,212.5 C 215.885,214.947 219.385,217.28 223,219.5C 223.49,220.793 223.657,222.127 223.5,223.5C 231.392,230.128 239.726,236.295 248.5,242C 251.039,244.296 252.539,246.796 253,249.5C 253.414,249.043 253.914,248.709 254.5,248.5C 257.718,252.71 260.052,252.21 261.5,247C 263.167,246.667 264.833,246.333 266.5,246C 266.043,245.586 265.709,245.086 265.5,244.5C 266.808,243.374 268.142,243.374 269.5,244.5C 269.167,245.167 268.833,245.833 268.5,246.5C 266.761,249.243 264.427,251.243 261.5,252.5C 259.143,252.663 256.81,252.497 254.5,252C 250.325,249.311 246.325,246.477 242.5,243.5C 240.5,242.167 238.833,240.5 237.5,238.5C 234.105,234.102 230.105,230.436 225.5,227.5C 224.833,227.167 224.167,226.833 223.5,226.5C 222.5,223.5 220.5,221.5 217.5,220.5C 216.5,220.167 215.833,219.5 215.5,218.5C 214.544,216.484 213.21,214.651 211.5,213C 211.728,212.601 212.062,212.435 212.5,212.5 Z"/></g>
<g><path style="opacity:0.569" fill="#858587" d="M 223.5,251.5 C 224.833,252.167 225.833,253.167 226.5,254.5C 224.5,254.5 223.5,253.5 223.5,251.5 Z"/></g>
<g><path style="opacity:0.442" fill="#b0c4d1" d="M 242.5,243.5 C 246.325,246.477 250.325,249.311 254.5,252C 256.81,252.497 259.143,252.663 261.5,252.5C 258.776,254.938 255.776,255.105 252.5,253C 248.692,250.36 245.359,247.193 242.5,243.5 Z"/></g>
<g><path style="opacity:0.384" fill="#a2a0a1" d="M 108.5,248.5 C 103.524,252.47 98.5244,256.47 93.5,260.5C 97.2963,255.041 102.296,251.041 108.5,248.5 Z"/></g>
<g><path style="opacity:0.667" fill="#939393" d="M 226.5,254.5 C 229.109,255.443 231.109,257.11 232.5,259.5C 229.865,258.527 227.865,256.86 226.5,254.5 Z"/></g>
<g><path style="opacity:0.561" fill="#9a9899" d="M 232.5,259.5 C 233.872,260.512 235.205,261.512 236.5,262.5C 234.027,262.912 232.694,261.912 232.5,259.5 Z"/></g>
<g><path style="opacity:0.196" fill="#c9c9c9" d="M 93.5,260.5 C 92.1667,262.5 90.5,264.167 88.5,265.5C 89.1667,262.833 90.8333,261.167 93.5,260.5 Z"/></g>
<g><path style="opacity:0.161" fill="#bdbbbc" d="M 236.5,262.5 C 237.906,262.973 238.573,263.973 238.5,265.5C 237.094,265.027 236.427,264.027 236.5,262.5 Z"/></g>
<g><path style="opacity:0.141" fill="#b5b3b4" d="M 88.5,271.5 C 90.0269,271.427 91.0269,272.094 91.5,273.5C 89.9731,273.573 88.9731,272.906 88.5,271.5 Z"/></g>
<g><path style="opacity:0.616" fill="#939292" d="M 238.5,265.5 C 239.117,265.611 239.617,265.944 240,266.5C 241.718,271.385 240.218,274.551 235.5,276C 190.002,276.013 144.669,275.513 99.5,274.5C 144.835,274.667 190.168,274.5 235.5,274C 239.469,272.317 240.469,269.484 238.5,265.5 Z"/></g>
</svg>
