<svg xmlns="http://www.w3.org/2000/svg" width="1200" height="630" viewBox="0 0 1200 630"><path fill="#fefbfb" d="M0 0h1200v630H0z"/><defs><clipPath id="a"><path d="M109 39h1048a4 4 0 0 1 4 4v496a4 4 0 0 1-4 4H109a4 4 0 0 1-4-4V43a4 4 0 0 1 4-4"/></clipPath></defs><g opacity=".9"><path fill="#ecebeb" d="M109 39h1048a4 4 0 0 1 4 4v496a4 4 0 0 1-4 4H109a4 4 0 0 1-4-4V43a4 4 0 0 1 4-4"/><path fill="none" stroke="#000" stroke-width="8" d="M106.172 40.172A4 4 0 0 1 109 39h1048a4 4 0 0 1 4 4v496a4 4 0 0 1-4 4H109a4 4 0 0 1-4-4V43a4 4 0 0 1 1.172-2.828" clip-path="url(#a)"/></g><defs><clipPath id="b"><path d="M76 63h1048a4 4 0 0 1 4 4v496a4 4 0 0 1-4 4H76a4 4 0 0 1-4-4V67a4 4 0 0 1 4-4"/></clipPath></defs><path fill="#fefbfb" d="M76 63h1048a4 4 0 0 1 4 4v496a4 4 0 0 1-4 4H76a4 4 0 0 1-4-4V67a4 4 0 0 1 4-4"/><path fill="none" stroke="#000" stroke-width="8" d="M73.172 64.172A4 4 0 0 1 76 63h1048a4 4 0 0 1 4 4v496a4 4 0 0 1-4 4H76a4 4 0 0 1-4-4V67a4 4 0 0 1 1.172-2.828" clip-path="url(#b)"/><clipPath id="c"><path d="M128 103h944v187H128z"/></clipPath><mask id="d"><path fill="#fff" d="M128 103h944v187H128z"/></mask><path d="M170.8 183h-11.5l-3.1-12.1h-13.8l-3.1 12.1h-10.9l13.6-50.3h15.2l13.6 50.3Zm-16.3-20.9-4.9-19h-.6l-4.9 19h10.4Zm64.8 20.9v-8.3h11.4V138h-11.4v-8.3h22v45h11.4v8.3h-33.4Zm79.5 0h-6.1q-3.3 0-5.4-1.7-2-1.7-2.3-4.9h-.4q-1 3.7-4 5.5-3 1.9-7.3 1.9-5.4 0-8.7-2.9-3.3-2.9-3.3-8.2 0-5.8 4.3-8.6 4.2-2.8 12.4-2.8h6v-1.9q0-3.3-1.5-5-1.6-1.7-5.2-1.7-3.4 0-5.5 1.3t-3.6 3.4l-5.8-5.2q1.8-3.2 5.8-5.2 4-2.1 10.3-2.1 7.6 0 11.9 3.5 4.3 3.5 4.3 10.6v16.2h4.1v7.8Zm-21.5-6.2q2.8 0 4.8-1.3 1.9-1.4 1.9-4V167h-5.7q-6.5 0-6.5 4.4v1.5q0 1.9 1.5 2.9t4 1Zm95 6.2v-6.8h-.5q-1.4 3.4-4 5.5t-7 2.1q-3.1 0-5.7-1.1-2.5-1.2-4.4-3.6-1.8-2.3-2.8-6-1.1-3.7-1.1-8.7 0-5.1 1.1-8.7 1-3.7 2.8-6.1 1.9-2.4 4.4-3.5 2.6-1.2 5.7-1.2 2.2 0 3.9.6 1.8.6 3.1 1.6t2.3 2.4q1 1.4 1.7 3.1h.5v-22.9H383V183h-10.7Zm-6.9-7.5q2.8 0 4.8-1.3 2.1-1.4 2.1-4.4v-10.9q0-2.9-2.1-4.3-2-1.4-4.8-1.4-3.6 0-5.6 2.2-1.9 2.2-1.9 6.1v5.8q0 3.8 1.9 6 2 2.2 5.6 2.2Zm44.4 8.3q-9.4 0-14.2-5.2-4.8-5.2-4.8-14.1 0-4.5 1.3-8.2 1.2-3.6 3.6-6.1 2.3-2.6 5.6-3.9 3.4-1.4 7.6-1.4 4.1 0 7.5 1.4 3.3 1.3 5.6 3.7 2.3 2.5 3.5 6 1.3 3.5 1.3 7.8v3.2h-25.4v.6q0 3.6 2.2 5.8 2.2 2.2 6.6 2.2 3.3 0 5.7-1.3 2.3-1.2 4.1-3.3l5.7 6.3q-2.1 2.6-6 4.6-3.9 1.9-9.9 1.9Zm-.9-31.2q-3.4 0-5.5 2.1-2 2.1-2 5.7v.6h15v-.6q0-3.7-2-5.7-2-2.1-5.5-2.1Zm32.4-23.4-9.7 12.7-6.3-3.1 7.1-14 8.9 4.4Zm12.2 54.6q-4.4 0-7.9-1.3t-5.9-3.9q-2.4-2.5-3.7-6.1-1.3-3.6-1.3-8.1 0-4.6 1.3-8.2 1.3-3.6 3.7-6.1 2.4-2.5 5.9-3.8 3.5-1.4 7.8-1.4 6.2 0 9.9 2.5t5.6 6.6l-8.2 4.5q-1-2.2-2.6-3.6-1.6-1.5-4.7-1.5-3.6 0-5.6 2.2-2 2.1-2 5.8v6q0 3.7 2 5.8 2 2.1 5.8 2.1 3.1 0 4.8-1.4 1.8-1.5 3-3.8l8.1 4.6q-2 4.1-5.9 6.6-3.8 2.5-10.1 2.5Zm41.7 0q-4.3 0-7.8-1.3-3.4-1.3-5.8-3.9-2.5-2.5-3.8-6.1-1.2-3.6-1.2-8.1 0-4.6 1.2-8.2 1.3-3.6 3.8-6.1 2.4-2.5 5.8-3.8 3.5-1.4 7.8-1.4t7.8 1.4q3.4 1.3 5.8 3.8 2.5 2.5 3.8 6.1 1.2 3.6 1.2 8.2 0 4.5-1.2 8.1-1.3 3.6-3.8 6.1-2.4 2.6-5.8 3.9-3.5 1.3-7.8 1.3Zm0-7.9q3.6 0 5.6-2.2 2-2.3 2-6.4v-5.9q0-4.1-2-6.3t-5.6-2.2q-3.6 0-5.6 2.2-2 2.2-2 6.3v5.9q0 4.1 2 6.4 2 2.2 5.6 2.2Zm49.5 7.1v-6.8h-.5q-1.2 3.2-3.8 5.4-2.6 2.2-7.1 2.2-2.7 0-4.9-.9t-3.8-2.7q-1.6-1.8-2.5-4.4-.9-2.6-.9-6v-24h10.6v22.6q0 7.2 6.3 7.2 1.2 0 2.4-.3t2.1-1q.9-.7 1.5-1.7t.6-2.4v-24.4h10.6V183h-10.6Zm43.2 0h-12.6l-13.4-37.2h11.3l4.8 15.9 3.5 12.4h.6l3.5-12.4 4.9-15.9h10.8L587.9 183Zm37.9.8q-9.4 0-14.2-5.2-4.8-5.2-4.8-14.1 0-4.5 1.3-8.2 1.2-3.6 3.6-6.1 2.3-2.6 5.6-3.9 3.4-1.4 7.6-1.4 4.1 0 7.5 1.4 3.3 1.3 5.6 3.7 2.3 2.5 3.5 6 1.3 3.5 1.3 7.8v3.2h-25.4v.6q0 3.6 2.2 5.8 2.2 2.2 6.6 2.2 3.3 0 5.7-1.3 2.3-1.2 4.1-3.3l5.7 6.3q-2.1 2.6-6 4.6-3.9 1.9-9.9 1.9Zm-.9-31.2q-3.4 0-5.5 2.1-2 2.1-2 5.7v.6h15v-.6q0-3.7-2-5.7-2-2.1-5.5-2.1Zm26.8 30.4v-8.3h8.6v-20.6h-8.6v-8.3H671v10.5h.5q.5-2 1.4-3.9.9-1.9 2.3-3.4t3.4-2.3q2-.9 4.7-.9h3.6v9.8h-8q-3.9 0-5.9 2.3-2 2.4-2 5.8v11h12.2v8.3h-31.5Zm76.1 0h-13.7q-5.8 0-8.6-3.1-2.8-3-2.8-7.7v-18.1h-10.1v-8.3h6.6q2.4 0 3.4-.9 1-1 1-3.5v-8.7h9.8v13.1h14.4v8.3h-14.4v20.6h14.4v8.3Zm27.6.8q-9.4 0-14.2-5.2-4.8-5.2-4.8-14.1 0-4.5 1.3-8.2 1.2-3.6 3.6-6.1 2.3-2.6 5.6-3.9 3.4-1.4 7.6-1.4 4.1 0 7.5 1.4 3.3 1.3 5.6 3.7 2.3 2.5 3.5 6 1.3 3.5 1.3 7.8v3.2H747v.6q0 3.6 2.2 5.8 2.2 2.2 6.6 2.2 3.3 0 5.7-1.3 2.3-1.2 4.1-3.3l5.7 6.3q-2.1 2.6-6 4.6-3.9 1.9-9.9 1.9Zm-.9-31.2q-3.4 0-5.5 2.1-2 2.1-2 5.7v.6h15v-.6q0-3.7-2-5.7-2-2.1-5.5-2.1Zm93 30.4v-6.8h-.5q-1.4 3.4-4 5.5t-7 2.1q-3.1 0-5.7-1.1-2.5-1.2-4.4-3.6-1.8-2.3-2.8-6-1.1-3.7-1.1-8.7 0-5.1 1.1-8.7 1-3.7 2.8-6.1 1.9-2.4 4.4-3.5 2.6-1.2 5.7-1.2 2.2 0 3.9.6 1.8.6 3.1 1.6t2.3 2.4q1 1.4 1.7 3.1h.5v-22.9h10.7V183h-10.7Zm-6.9-7.5q2.8 0 4.8-1.3 2.1-1.4 2.1-4.4v-10.9q0-2.9-2.1-4.3-2-1.4-4.8-1.4-3.6 0-5.6 2.2-1.9 2.2-1.9 6.1v5.8q0 3.8 1.9 6 2 2.2 5.6 2.2Zm44.4 8.3q-9.4 0-14.2-5.2-4.8-5.2-4.8-14.1 0-4.5 1.3-8.2 1.2-3.6 3.6-6.1 2.3-2.6 5.6-3.9 3.4-1.4 7.6-1.4 4.1 0 7.5 1.4 3.3 1.3 5.6 3.7 2.3 2.5 3.5 6 1.3 3.5 1.3 7.8v3.2h-25.4v.6q0 3.6 2.2 5.8 2.2 2.2 6.6 2.2 3.3 0 5.7-1.3 2.3-1.2 4.1-3.3l5.7 6.3q-2.1 2.6-6 4.6-3.9 1.9-9.9 1.9Zm-.9-31.2q-3.4 0-5.5 2.1-2 2.1-2 5.7v.6h15v-.6q0-3.7-2-5.7-2-2.1-5.5-2.1Zm-739.8 124h-10.8v-50.3h19.4q3.7 0 6.6 1.1 2.8 1.1 4.8 3.2t3 5.1q1 2.9 1 6.6 0 3.7-1 6.6-1 3-3 5-2 2.1-4.8 3.2-2.9 1.2-6.6 1.2h-8.6v18.3Zm0-41.6v14.6h5.9q3.8 0 5.3-1.5 1.4-1.4 1.4-4.7v-2.2q0-3.3-1.4-4.8-1.5-1.4-5.3-1.4h-5.9Zm52.3 20 5.6-15.6H213l-17.5 43.1q-1.6 4.1-4.4 6.3-2.7 2.2-7.4 2.2h-7.4v-8.3h8.9l2.3-6.4-14.9-36.9H184l5.4 15.6 3.4 10.8h.6l3.2-10.8Zm56 21.6h-13.7q-5.8 0-8.6-3.1-2.8-3-2.8-7.7v-18.1h-10.1v-8.3h6.6q2.4 0 3.4-.9 1-1 1-3.5v-8.7h9.8v13.1h14.4v8.3h-14.4v20.6h14.4v8.3Zm9.7 0v-53.3h10.6v22.9h.5q.6-1.6 1.6-3 .9-1.4 2.2-2.4 1.4-1 3.1-1.7 1.8-.6 4-.6 2.7 0 4.9.9t3.8 2.7q1.6 1.8 2.5 4.4.9 2.6.9 6v24.1h-10.6v-22.7q0-7.2-6.3-7.2-1.2 0-2.4.4-1.2.3-2.1 1-1 .7-1.5 1.7-.6 1-.6 2.3v24.5h-10.6Zm60.1.8q-4.3 0-7.8-1.3-3.4-1.3-5.8-3.9-2.5-2.5-3.8-6.1-1.2-3.6-1.2-8.1 0-4.6 1.2-8.2 1.3-3.6 3.8-6.1 2.4-2.5 5.8-3.8 3.5-1.4 7.8-1.4t7.8 1.4q3.4 1.3 5.8 3.8 2.5 2.5 3.8 6.1 1.2 3.6 1.2 8.2 0 4.5-1.2 8.1-1.3 3.6-3.8 6.1-2.4 2.6-5.8 3.9-3.5 1.3-7.8 1.3Zm0-7.9q3.6 0 5.6-2.2 2-2.3 2-6.4V255q0-4.1-2-6.3t-5.6-2.2q-3.6 0-5.6 2.2-2 2.2-2 6.3v5.9q0 4.1 2 6.4 2 2.2 5.6 2.2Zm36.9 7.1h-10.6v-37.2h10.6v6.8h.5q.6-1.6 1.6-3 .9-1.4 2.2-2.4 1.4-1 3.1-1.7 1.8-.6 4-.6 2.7 0 4.9.9t3.8 2.7q1.6 1.8 2.5 4.4.9 2.6.9 6v24.1h-10.6v-22.7q0-7.2-6.3-7.2-1.2 0-2.4.4-1.2.3-2.1 1-1 .7-1.5 1.7-.6 1-.6 2.3v24.5Z" clip-path="url(#c)" mask="url(#d)"/><path d="M130.7 520.3v-20.7h2.2v8.6h.1q1.4-2.7 4.5-2.7 2.6 0 4.1 2 1.5 2 1.5 5.5 0 3.6-1.5 5.6-1.5 2-4.1 2-3.1 0-4.5-2.7h-.1v2.4h-2.2Zm5.9-1.7q2 0 3-1.2 1.1-1.2 1.1-3.1v-2.5q0-1.9-1.1-3.1-1-1.2-3-1.2-.8 0-1.4.2-.7.2-1.2.5-.5.4-.8 1-.3.5-.3 1.2v5.3q0 .7.3 1.2.3.6.8.9.5.4 1.2.6.6.2 1.4.2Zm18.8-6.7 2.5-6.1h2.2l-7.2 17.6q-.2.7-.5 1.1-.3.5-.7.8-.5.3-1 .4-.6.2-1.4.2h-2.2V524h3.4l1.6-4-5.8-14.2h2.3l2.4 6.1 2.2 5.5h.1l2.1-5.5Z"/><clipPath id="e"><path d="M178 489h252v36H178z"/></clipPath><mask id="f"><path fill="#fff" d="M178 489h252v36H178z"/></mask><path d="M190.1 520.1v-8.7l.2-5.5h-.3l-3.6 10.1-3.6-10.1h-.3l.2 5.5v8.7h-3.6v-19.6h4.9l2.5 6.6h.2l2.4-6.6h4.6v19.6h-3.6Zm20.7 0h-2.4q-1.3 0-2-.7-.8-.6-1-1.9h-.1q-.4 1.5-1.6 2.2-1.1.7-2.8.7-2.1 0-3.4-1.1-1.2-1.1-1.2-3.2 0-2.3 1.6-3.3 1.7-1.1 4.9-1.1h2.3v-.8q0-1.3-.6-1.9-.6-.7-2.1-.7-1.3 0-2.1.5t-1.4 1.4l-2.3-2.1q.8-1.2 2.3-2 1.6-.8 4-.8 3 0 4.7 1.4 1.6 1.3 1.6 4.1v6.3h1.6v3Zm-8.3-2.4q1.1 0 1.8-.5.8-.6.8-1.6v-1.7h-2.2q-2.6 0-2.6 1.7v.6q0 .7.6 1.1.6.4 1.6.4Zm13.3 2.4h-3.4v-14.5h3.4v2.2h.2q.3-1 .9-1.8.7-.7 1.8-.7 2.1 0 2.6 2.5h.2q.1-.5.4-1 .2-.4.6-.8.4-.3.9-.5t1.1-.2q3.1 0 3.1 4.5v10.3h-3.4v-9.9q0-1-.3-1.4-.4-.4-.9-.4-.6 0-.9.3-.4.4-.4 1.1v10.3h-3.4v-9.9q0-1-.3-1.4-.3-.4-.9-.4-.5 0-.9.3-.4.4-.4 1.1v10.3Zm21 .3q-1.7 0-3-.5-1.4-.5-2.3-1.5-.9-1-1.4-2.4-.6-1.4-.6-3.1 0-1.8.6-3.2.5-1.4 1.4-2.4.9-1 2.3-1.5 1.3-.5 3-.5t3 .5q1.4.5 2.3 1.5.9 1 1.4 2.4.6 1.4.6 3.2 0 1.7-.6 3.1-.5 1.4-1.4 2.4-.9 1-2.3 1.5-1.3.5-3 .5Zm0-3.1q1.4 0 2.2-.8.8-.9.8-2.5v-2.3q0-1.6-.8-2.4-.8-.9-2.2-.9-1.4 0-2.2.9-.8.8-.8 2.4v2.3q0 1.6.8 2.5.8.8 2.2.8Zm19.2 2.8v-2.6h-.1q-.5 1.2-1.5 2.1-1.1.8-2.8.8-1 0-1.9-.3-.9-.4-1.5-1.1-.6-.7-.9-1.7-.4-1-.4-2.3v-9.4h4.2v8.8q0 2.8 2.4 2.8.5 0 .9-.1.5-.1.8-.4.4-.2.6-.6.2-.4.2-1v-9.5h4.2v14.5H256Zm17 0v-2.6h-.2q-.6 1.3-1.5 2.1-1 .8-2.8.8-1.2 0-2.2-.4-1-.5-1.7-1.4-.7-.9-1.1-2.3-.4-1.5-.4-3.4 0-2 .4-3.4t1.1-2.4q.7-.9 1.7-1.3 1-.5 2.2-.5.9 0 1.6.2l1.2.6q.5.4.9 1 .3.5.6 1.2h.2v-8.9h4.1v20.7H273Zm-2.7-2.9q1.1 0 1.9-.5.8-.6.8-1.7v-4.3q0-1.1-.8-1.6-.8-.6-1.9-.6-1.4 0-2.1.9-.8.8-.8 2.3v2.3q0 1.5.8 2.4.7.8 2.1.8Zm16.9 3.2q-1.7 0-3-.5-1.4-.5-2.3-1.5-.9-1-1.4-2.4-.6-1.4-.6-3.1 0-1.8.6-3.2.5-1.4 1.4-2.4.9-1 2.3-1.5 1.3-.5 3-.5t3 .5q1.4.5 2.3 1.5.9 1 1.4 2.4.6 1.4.6 3.2 0 1.7-.6 3.1-.5 1.4-1.4 2.4-.9 1-2.3 1.5-1.3.5-3 .5Zm0-3.1q1.4 0 2.2-.8.8-.9.8-2.5v-2.3q0-1.6-.8-2.4-.8-.9-2.2-.9-1.4 0-2.2.9-.8.8-.8 2.4v2.3q0 1.6.8 2.5.8.8 2.2.8Zm19.2 2.8v-2.6h-.1q-.5 1.2-1.5 2.1-1.1.8-2.8.8-1 0-1.9-.3-.9-.4-1.5-1.1-.6-.7-.9-1.7-.4-1-.4-2.3v-9.4h4.2v8.8q0 2.8 2.4 2.8.5 0 .9-.1.5-.1.8-.4.4-.2.6-.6.2-.4.2-1v-9.5h4.2v14.5h-4.2Zm24.6 0v-19.6h6.3q3.9 0 5.8 2.6 1.9 2.5 1.9 7.2 0 4.8-1.9 7.3t-5.8 2.5H331Zm4.1-3.3h1.9q1.9 0 2.8-1.2.8-1.2.8-3.5v-3.6q0-2.2-.8-3.4-.9-1.2-2.8-1.2h-1.9v12.9Zm25.6 3.3h-12.6V517h4.2v-13.3h-4.2v-3.2h12.6v3.2h-4.2V517h4.2v3.1Zm18.8 0H375l-1.3-4.7h-5.3l-1.2 4.7h-4.3l5.3-19.6h6l5.3 19.6Zm-6.4-8.1-1.9-7.4h-.2l-1.9 7.4h4Zm21.7 8.1h-12.6v-19.6h4.2v16.1h8.4v3.5Zm16.8 0H399v-19.6h4.2v16.1h8.4v3.5Zm10 .3q-3.9 0-5.8-2.6-1.8-2.7-1.8-7.5t1.8-7.4q1.9-2.7 5.8-2.7t5.8 2.7q1.8 2.6 1.8 7.4 0 4.8-1.8 7.5-1.9 2.6-5.8 2.6Zm0-3.4q1.8 0 2.5-1.3t.7-3.7v-3.4q0-2.3-.7-3.7-.7-1.3-2.5-1.3t-2.5 1.3q-.7 1.4-.7 3.7v3.4q0 2.4.7 3.7.7 1.3 2.5 1.3Z" clip-path="url(#e)" mask="url(#f)"/><clipPath id="g"><path d="M870 489h202v36H870z"/></clipPath><mask id="h"><path fill="#fff" d="M870 489h202v36H870z"/></mask><path d="M876.4 520.1h-4.3v-19.6h7.6q1.4 0 2.5.5 1.2.4 1.9 1.2.8.8 1.2 2 .4 1.1.4 2.6 0 1.4-.4 2.5-.4 1.2-1.2 2-.7.8-1.9 1.2-1.1.5-2.5.5h-3.3v7.1Zm0-16.2v5.7h2.2q1.5 0 2.1-.6.6-.5.6-1.8v-.9q0-1.2-.6-1.8-.6-.6-2.1-.6h-2.2Zm18.8 16.5q-1.7 0-3-.5-1.4-.5-2.3-1.5-.9-1-1.4-2.4-.6-1.4-.6-3.1 0-1.8.6-3.2.5-1.4 1.4-2.4.9-1 2.3-1.5 1.3-.5 3-.5t3 .5q1.4.5 2.3 1.5.9 1 1.4 2.4.6 1.4.6 3.2 0 1.7-.6 3.1-.5 1.4-1.4 2.4-.9 1-2.3 1.5-1.3.5-3 .5Zm0-3.1q1.4 0 2.2-.8.8-.9.8-2.5v-2.3q0-1.6-.8-2.4-.8-.9-2.2-.9-1.4 0-2.2.9-.8.8-.8 2.4v2.3q0 1.6.8 2.5.8.8 2.2.8Zm10.3 2.8v-3.2h4.4v-14.3h-4.4v-3.2h8.6v17.5h4.4v3.2h-13Zm24.8-8.4 2.1-6.1h4.3l-6.8 16.8q-.7 1.6-1.7 2.5-1.1.8-3 .8h-2.8v-3.2h3.5l.9-2.5-5.9-14.4h4.5l2.1 6.1 1.3 4.2h.2l1.3-4.2Zm22.1 8.4h-12.6v-19.6h4.2v16.1h8.4v3.5Zm10.9-16.3q-1.4 0-2-.6-.5-.6-.5-1.4v-.8q0-.8.5-1.4.6-.5 2-.5t1.9.5q.6.6.6 1.4v.8q0 .8-.6 1.4-.5.6-1.9.6Zm-6.7 16.3v-3.2h4.6v-8h-4.6v-3.3h8.8v11.3h4.2v3.2h-13Zm20.2 0h-4.2v-14.5h4.2v2.7h.1l.6-1.2q.4-.5.9-.9t1.2-.7q.7-.2 1.6-.2 1 0 1.9.4.9.3 1.5 1t.9 1.7q.4 1 .4 2.3v9.4h-4.2v-8.8q0-2.8-2.4-2.8-.5 0-.9.1-.5.2-.9.4-.3.3-.5.7-.2.4-.2.9v9.5Zm27.1 1.4q0 2.3-1.9 3.4t-6.1 1.1q-2.1 0-3.4-.2-1.3-.2-2.1-.7-.8-.4-1.2-1.1-.3-.6-.3-1.3 0-1.2.7-1.9.8-.6 2.1-.9v-.2q-.9-.3-1.5-.8-.5-.5-.5-1.5t.7-1.5q.7-.5 1.9-.8v-.2q-1.3-.6-2-1.7t-.7-2.7q0-1.3.4-2.3.5-.9 1.3-1.6.8-.6 2-1 1.1-.3 2.5-.3t2.6.3v-.8q0-.8.6-1.4.6-.5 1.6-.5h2.5v3h-3.4v.2q1.1.7 1.8 1.7.7 1.1.7 2.7 0 1.2-.5 2.2-.4.9-1.3 1.6-.8.6-2 1-1.1.3-2.6.3-.6 0-1.2-.1-.6 0-1.1-.2-.3.2-.5.5-.2.2-.2.6 0 .3.1.5.2.2.5.3.3.1.7.1.4.1.8.1h3.3q1.5 0 2.6.3t1.8.9q.7.5 1 1.3.3.7.3 1.6Zm-3.9.4q0-.6-.4-.9-.5-.3-1.8-.3h-4.9q-.6.4-.6 1.1 0 .7.6 1.1.6.5 2 .5h2.4q1.4 0 2.1-.4.6-.4.6-1.1Zm-4.2-8.9q1.3 0 1.9-.6.5-.7.5-1.6v-.7q0-.9-.5-1.5-.6-.7-1.9-.7-1.2 0-1.8.7-.5.6-.5 1.5v.7q0 .9.5 1.6.6.6 1.8.6Zm17 7.4q-1.7 0-3-.5-1.4-.5-2.3-1.5-.9-1-1.4-2.4-.6-1.4-.6-3.1 0-1.8.6-3.2.5-1.4 1.4-2.4.9-1 2.3-1.5 1.3-.5 3-.5t3 .5q1.4.5 2.3 1.5.9 1 1.4 2.4.6 1.4.6 3.2 0 1.7-.6 3.1-.5 1.4-1.4 2.4-.9 1-2.3 1.5-1.3.5-3 .5Zm0-3.1q1.4 0 2.2-.8.8-.9.8-2.5v-2.3q0-1.6-.8-2.4-.8-.9-2.2-.9-1.4 0-2.2.9-.8.8-.8 2.4v2.3q0 1.6.8 2.5.8.8 2.2.8Zm23.6 2.8h-12.6v-19.6h4.2v16.1h8.4v3.5Zm17.6 0h-2.4q-1.3 0-2-.7-.8-.6-1-1.9h-.1q-.4 1.5-1.6 2.2-1.1.7-2.8.7-2.1 0-3.4-1.1-1.2-1.1-1.2-3.2 0-2.3 1.6-3.3 1.7-1.1 4.9-1.1h2.3v-.8q0-1.3-.6-1.9-.6-.7-2.1-.7-1.3 0-2.1.5t-1.4 1.4l-2.3-2.1q.8-1.2 2.3-2 1.6-.8 4-.8 3 0 4.7 1.4 1.6 1.3 1.6 4.1v6.3h1.6v3Zm-8.3-2.4q1.1 0 1.8-.5.8-.6.8-1.6v-1.7h-2.2q-2.6 0-2.6 1.7v.6q0 .7.6 1.1.6.4 1.6.4Zm10.8 2.4v-20.7h4.1v8.9h.2q.5-1.3 1.5-2.2 1-.8 2.8-.8 1.2 0 2.2.5 1 .4 1.7 1.3.7 1 1.1 2.4.4 1.4.4 3.4 0 1.9-.4 3.4-.4 1.4-1.1 2.3-.7.9-1.7 1.4-1 .4-2.2.4-1.8 0-2.8-.8-1-.8-1.5-2.1h-.2v2.6h-4.1Zm6.8-2.9q1.4 0 2.1-.8.8-.9.8-2.4v-2.3q0-1.5-.8-2.3-.7-.9-2.1-.9-1.1 0-1.9.6-.8.5-.8 1.6v4.3q0 1.1.8 1.7.8.5 1.9.5Z" clip-path="url(#g)" mask="url(#h)"/></svg>