<svg xmlns="http://www.w3.org/2000/svg" width="318" height="310" style="shape-rendering:geometricPrecision;text-rendering:geometricPrecision;image-rendering:optimizeQuality;fill-rule:evenodd;clip-rule:evenodd"><path fill="#413f40" d="M88.5 29.5c14.51-.33 28.843.004 43 1-14.715-.3-29.382.033-44 1l1-2Z" style="opacity:.748"/><path fill="#a8a6a7" d="M88.5 29.5c47.867-1.26 95.533-.926 143 1h-100a462.834 462.834 0 0 0-43-1Z" style="opacity:.613"/><path fill="#b5b5b5" d="m88.5 29.5-1 2c-.617.11-1.117.444-1.5 1a18.436 18.436 0 0 0-.5 6c-3.177-4.275-2.177-7.275 3-9Z" style="opacity:.337"/><path fill="#333232" d="M160.5 30.5h71c.667 0 1 .333 1 1v1c-24.098-.657-48.098-1.324-72-2Z" style="opacity:.896"/><path fill="#222021" d="M131.5 30.5h29c23.902.676 47.902 1.343 72 2 1 .333 1.667 1 2 2-.164 3.317-1.164 6.317-3 9-1.333 0-2 .667-2 2-2.973 1.31-5.307 3.31-7 6-2.132.054-3.465 1.054-4 3l-4 1c-22.349.02-44.682-.146-67-.5-1.485 1.757-1.152 2.923 1 3.5.473 1.406 1.473 2.073 3 2 0 2 1 3 3 3-.086.996.248 1.83 1 2.5a43.87 43.87 0 0 0 7 4.5c.703 2.216 2.036 4.049 4 5.5a79.839 79.839 0 0 0 9 6.5c.025 2.679 1.358 4.012 4 4 1.085 2.087 2.751 3.42 5 4 .333 3 2 4.667 5 5 1 .333 1.667 1 2 2l5 6c.127 2.745-1.04 4.745-3.5 6-1.962.469-3.795-.197-5.5-2l-1 1c1.673 2.023 2.34 4.356 2 7h-4c.241 3.499-.592 3.832-2.5 1a4.934 4.934 0 0 0-.5 3l-6 1c-.762-1.762-2.096-2.762-4-3-.667-2.667-2.333-4.333-5-5-1.411-2.414-3.411-4.081-6-5l-6-7a25.939 25.939 0 0 0-9-8c-1.105-1.1-2.438-1.767-4-2-.394-2.21-1.727-3.543-4-4-3.727-4.73-8.06-8.73-13-12 0-2-1-3-3-3-2.4-3.403-5.4-6.07-9-8-1.085-2.087-2.751-3.42-5-4-1.333-3.333-3.667-5.667-7-7-2.07-3.072-4.736-5.406-8-7-1-.333-1.667-1-2-2-.473-1.406-1.473-2.073-3-2-.901-.79-1.568-1.79-2-3a18.436 18.436 0 0 1 .5-6c.383-.556.883-.89 1.5-1a508.886 508.886 0 0 1 44-1Z" style="opacity:1"/><path fill="#dcdadb" d="M232.5 32.5v-1c2 0 3 1 3 3h-1c-.333-1-1-1.667-2-2Z" style="opacity:.024"/><path fill="#adadad" d="M234.5 34.5h1c.801 3.649-.532 6.649-4 9 1.836-2.683 2.836-5.683 3-9Z" style="opacity:.122"/><path fill="#b2b2b2" d="M87.5 41.5c1.527-.073 2.527.594 3 2-1.527.073-2.527-.594-3-2Z" style="opacity:.173"/><path fill="#dfdfdf" d="M231.5 43.5c-.333 1-1 1.667-2 2 0-1.333.667-2 2-2Z" style="opacity:.075"/><path fill="#ababad" d="M92.5 45.5c3.264 1.594 5.93 3.928 8 7-3.264-1.594-5.93-3.928-8-7Z" style="opacity:.498"/><path fill="#d4d4d4" d="M229.5 45.5c-1.719 2.72-4.053 4.72-7 6 1.693-2.69 4.027-4.69 7-6Z" style="opacity:.059"/><path fill="#beced4" d="M70.5 51.5a24.939 24.939 0 0 0-7 .5c-.97 1.481-2.304 2.315-4 2.5 2.922-4.54 6.589-5.54 11-3Z" style="opacity:.278"/><path fill="#9c9c9d" d="M100.5 52.5c3.333 1.333 5.667 3.667 7 7-2.667-2-5-4.333-7-7Z" style="opacity:.553"/><path fill="#bfbfbf" d="M222.5 51.5c-.762 1.762-2.096 2.762-4 3 .535-1.946 1.868-2.946 4-3Z" style="opacity:.216"/><path fill="#afb9c6" d="M297.5 53.5a27.425 27.425 0 0 0-11 2c.558-1.29 1.558-2.123 3-2.5 2.867-.8 5.534-.634 8 .5Z" style="opacity:.225"/><path fill="#b4c6d2" d="M71.5 51.5a192.94 192.94 0 0 1 17 16l-9-6h-1c-2.385-3.37-4.718-6.703-7-10Z" style="opacity:.247"/><path fill="#565555" d="M214.5 55.5v1h-63c-1.679-.215-2.679.452-3 2-2.152-.577-2.485-1.743-1-3.5 22.318.354 44.651.52 67 .5Z" style="opacity:.713"/><path fill="#e2e2e2" d="M218.5 54.5c-.787 1.604-2.12 2.27-4 2v-1l4-1Z" style="opacity:.098"/><path fill="#e7e5e6" d="M151.5 56.5c-.418.722-1.084 1.222-2 1.5.881.708 1.547 1.542 2 2.5-1.527.073-2.527-.594-3-2 .321-1.548 1.321-2.215 3-2Z" style="opacity:.065"/><path fill="#dcdcdc" d="M152.5 56.5h62c-2.86.744-5.86 1.41-9 2a9143.666 9143.666 0 0 1-53-2Z" style="opacity:.134"/><path fill="#b4c1d0" d="m286.5 55.5-4 5a307.874 307.874 0 0 1-23 19 240.515 240.515 0 0 1 27-24Z" style="opacity:.188"/><path fill="#c0bfc1" d="M107.5 59.5c2.249.58 3.915 1.913 5 4-2.249-.58-3.915-1.913-5-4Z" style="opacity:.176"/><path fill="#c3c1c2" d="M151.5 60.5a6.544 6.544 0 0 1 3 3c-2 0-3-1-3-3Z" style="opacity:.318"/><path fill="#a2a2a2" d="M112.5 63.5c3.6 1.93 6.6 4.597 9 8-3.6-1.93-6.6-4.597-9-8Z" style="opacity:.471"/><path fill="#c3c3c3" d="M154.5 63.5c3.284 1.617 5.951 3.95 8 7a43.87 43.87 0 0 1-7-4.5c-.752-.67-1.086-1.504-1-2.5Z" style="opacity:.024"/><path fill="#b5c6d0" d="M57.5 56.5a46.142 46.142 0 0 1-5.5 6c-.667 2-.667 4 0 6 .383.556.883.89 1.5 1a11.741 11.741 0 0 1 3 5c-9.52-6.577-9.187-12.577 1-18Z" style="opacity:.365"/><path fill="#6a899e" d="M70.5 51.5h1c2.282 3.297 4.615 6.63 7 10a123.424 123.424 0 0 1-12.5-7c-7.908 1.786-12.075 6.786-12.5 15-.617-.11-1.117-.444-1.5-1-.667-2-.667-4 0-6a46.142 46.142 0 0 0 5.5-6c.333-1 1-1.667 2-2 1.696-.185 3.03-1.019 4-2.5a24.939 24.939 0 0 1 7-.5Z" style="opacity:1"/><path fill="#738fa8" d="m79.5 61.5 9 6c3.6 1.93 6.6 4.597 9 8 1.936 3.81 4.936 6.478 9 8 2.667 2 5 4.333 7 7 1.212 2.607 3.212 4.273 6 5a119.283 119.283 0 0 1 14 12c.233 1.562.9 2.895 2 4a47.25 47.25 0 0 1-7-3c-1.326-2.987-3.326-5.32-6-7a56.395 56.395 0 0 0-14-10.5c-.837-1.011-1.17-2.178-1-3.5a20.093 20.093 0 0 1-6-1.5c-1.442-4.444-4.442-7.11-9-8a136.22 136.22 0 0 0-8-8.5 81.67 81.67 0 0 1-5-8Z" style="opacity:1"/><path fill="#8b8a8b" d="M121.5 71.5c2 0 3 1 3 3a6.544 6.544 0 0 1-3-3Z" style="opacity:.616"/><path fill="#4d709e" d="M291.5 220.5a18.974 18.974 0 0 1-8-2 41.927 41.927 0 0 0-7-10 94.146 94.146 0 0 0-3-9c.469-24.507.969-49.174 1.5-74-.179-4.937 1.321-9.271 4.5-13-.737-2.212-1.737-4.545-3-7-2.148-1.258-4.315-1.258-6.5 0a30.748 30.748 0 0 1-7-8c-.833 1.5-2 2.667-3.5 3.5a22.981 22.981 0 0 1 5 2c-2.871 3.018-4.871 5.851-6 8.5h-3v3a16.994 16.994 0 0 1-6.5-2 3.943 3.943 0 0 0-2 1 29.046 29.046 0 0 0-7.5-10 128.745 128.745 0 0 1 25.5-24 11.339 11.339 0 0 1 1.5-3.5l7-1c.924-.85.924-1.85 0-3a2072.96 2072.96 0 0 0 3-4c4.013-.85 6.013-3.35 6-7.5 1.696-.185 3.029-1.019 4-2.5 3.394-.752 6.727-.585 10 .5 1.167 47.33 1.333 94.663.5 142a587.868 587.868 0 0 0-1.5 19c-1.599-.268-2.932.066-4 1Z" style="opacity:1"/><path fill="#b3b2b1" d="M124.5 74.5c4.94 3.27 9.273 7.27 13 12-4.94-3.27-9.273-7.27-13-12Z" style="opacity:.506"/><path fill="#c3d4e3" d="M56.5 74.5a11.741 11.741 0 0 1 5 3l1 2c-2.59-.92-4.59-2.586-6-5Z" style="opacity:.271"/><path fill="#618bb2" d="M78.5 61.5h1a81.67 81.67 0 0 0 5 8 378.503 378.503 0 0 1-11.5-7c-1.011.837-2.178 1.17-3.5 1-.275-3.609-2.275-5.609-6-6-2.552 2.1-3.719 4.767-3.5 8 3.347.167 6.847.833 10.5 2 .73 1.434 1.73 2.6 3 3.5-2.492 1.25-2.325 2.416.5 3.5 1.7-.906 3.533-1.24 5.5-1 .678 3.773-.656 6.606-4 8.5a11.529 11.529 0 0 1 4.5 3.5c.718-.95 1.55-1.117 2.5-.5l3.5 3.5c.914-1.154 1.747-.987 2.5.5l-2 1c2.755 1.953 5.755 3.12 9 3.5.323 4.021.657 8.021 1 12h-4c.224-5.052-2.11-8.218-7-9.5a3.943 3.943 0 0 0 1-2c-1.81-3.656-4.81-5.49-9-5.5l-10-9a31.697 31.697 0 0 0-6-2 11.741 11.741 0 0 0-5-3 11.741 11.741 0 0 0-3-5c.425-8.214 4.592-13.214 12.5-15 4.133 2.633 8.3 4.966 12.5 7Z" style="opacity:1"/><path fill="#c3c3c3" d="M162.5 70.5a56.993 56.993 0 0 1 13 12 79.839 79.839 0 0 1-9-6.5c-1.964-1.451-3.297-3.284-4-5.5Z" style="opacity:.043"/><path fill="#b8c8d1" d="M62.5 79.5c2.333.333 3.667 1.667 4 4-1.667-1-3-2.333-4-4Z" style="opacity:.447"/><path fill="#b7c6d3" d="M97.5 75.5c3.62 1.953 6.62 4.62 9 8-4.064-1.522-7.064-4.19-9-8Z" style="opacity:.212"/><path fill="#c4d5e1" d="M66.5 83.5c3.264 1.594 5.93 3.927 8 7-3.264-1.594-5.93-3.927-8-7Z" style="opacity:.4"/><path fill="#b1bfc9" d="M37.5 82.5c2.254.624 3.92 1.957 5 4-2.704-.17-4.37-1.503-5-4Z" style="opacity:.384"/><path fill="#737373" d="M175.5 82.5c1.667 1 3 2.333 4 4-2.642.012-3.975-1.321-4-4Z" style="opacity:.859"/><path fill="#c6d3de" d="M42.5 86.5c1.904.238 3.238 1.238 4 3-1.904-.238-3.238-1.238-4-3Z" style="opacity:.027"/><path fill="#6089b6" d="M84.5 69.5a136.22 136.22 0 0 1 8 8.5c4.558.89 7.558 3.556 9 8a20.093 20.093 0 0 0 6 1.5c-.17 1.322.163 2.489 1 3.5a56.395 56.395 0 0 1 14 10.5 6.846 6.846 0 0 0 1 4 16.702 16.702 0 0 0-7.5 4c-1.333-2.667-2.667-2.667-4 0a8.43 8.43 0 0 0-.5 4c-1.777-.286-3.444-.953-5-2a4.933 4.933 0 0 0-2.5 1 29.144 29.144 0 0 1-2.5-5 5.575 5.575 0 0 0-3-1c-.992.172-1.658-.162-2-1-.343-3.979-.677-7.979-1-12-3.245-.38-6.245-1.547-9-3.5l2-1c-.753-1.487-1.586-1.654-2.5-.5L82.5 85c-.95-.617-1.782-.45-2.5.5a11.529 11.529 0 0 0-4.5-3.5c3.344-1.894 4.678-4.727 4-8.5-1.967-.24-3.8.094-5.5 1-2.825-1.084-2.992-2.25-.5-3.5-1.27-.9-2.27-2.066-3-3.5-3.653-1.167-7.153-1.833-10.5-2-.219-3.233.948-5.9 3.5-8 3.725.391 5.725 2.391 6 6 1.322.17 2.489-.163 3.5-1a378.503 378.503 0 0 0 11.5 7Z" style="opacity:1"/><path fill="#dfddde" d="M179.5 86.5c2.249.58 3.915 1.913 5 4-2.249-.58-3.915-1.913-5-4Z" style="opacity:.008"/><path fill="#a7b6c3" d="M259.5 79.5a47.233 47.233 0 0 1-12 11 47.065 47.065 0 0 1 12-11Z" style="opacity:.255"/><path fill="#dcdbdc" d="M137.5 86.5c2.273.457 3.606 1.79 4 4-1.841-.902-3.174-2.236-4-4Z" style="opacity:.008"/><path fill="#5c7494" d="M297.5 53.5c1.406.473 2.073 1.473 2 3v96a1927.921 1927.921 0 0 1-3 68c-1.816 1.235-3.483 1.235-5 0 1.068-.934 2.401-1.268 4-1 .407-6.464.907-12.797 1.5-19 .833-47.337.667-94.67-.5-142-3.273-1.085-6.606-1.252-10-.5-.971 1.481-2.304 2.315-4 2.5l4-5a27.425 27.425 0 0 1 11-2Z" style="opacity:1"/><path fill="#c3d4df" d="M74.5 90.5c3.6 1.93 6.6 4.597 9 8-3.6-1.93-6.6-4.597-9-8Z" style="opacity:.369"/><path fill="#dad8d9" d="M141.5 90.5c1.562.233 2.895.9 4 2l2 3c-2.589-.92-4.589-2.586-6-5Z" style="opacity:.231"/><path fill="#a6b6c3" d="M247.5 90.5a37.41 37.41 0 0 1-11 9 37.41 37.41 0 0 1 11-9Z" style="opacity:.18"/><path fill="#afbdca" d="M46.5 89.5c1.762.762 2.762 2.096 3 4-1.946-.535-2.946-1.868-3-4Z" style="opacity:.478"/><path fill="#6a8ba4" d="M61.5 77.5a31.71 31.71 0 0 1 6 2l10 9c4.19.01 7.19 1.844 9 5.5a3.943 3.943 0 0 1-1 2c4.89 1.282 7.224 4.448 7 9.5h4c.342.838 1.008 1.172 2 1 2.034 3.418 4.034 6.751 6 10a69.875 69.875 0 0 0-11-9c-.992.172-1.658-.162-2-1-1.667-3.667-4.333-6.333-8-8-2.4-3.403-5.4-6.07-9-8-2.07-3.073-4.736-5.406-8-7-.333-2.333-1.667-3.667-4-4l-1-2Z" style="opacity:.991"/><path fill="#b2c2d2" d="M113.5 90.5c2.589.92 4.589 2.586 6 5-2.788-.727-4.788-2.393-6-5Z" style="opacity:.22"/><path fill="#888788" d="M184.5 90.5c2 1.333 3.667 3 5 5-3-.333-4.667-2-5-5Z" style="opacity:.506"/><path fill="#c0ccd6" d="M37.5 82.5a40.936 40.936 0 0 0-9 .5c-.752.67-1.086 1.504-1 2.5a4477.18 4477.18 0 0 0-2 113h-1a2493.78 2493.78 0 0 1 1.5-115c3.523-3.667 7.356-4 11.5-1Z" style="opacity:.329"/><path fill="#d6e2ef" d="M49.5 93.5c1.604.787 2.27 2.12 2 4-1.174-1.014-1.84-2.347-2-4Z" style="opacity:.063"/><path fill="#555354" d="M145.5 92.5a25.939 25.939 0 0 1 9 8h-2c-1-.333-1.667-1-2-2a6.544 6.544 0 0 0-3-3l-2-3Z" style="opacity:.886"/><path fill="#eae9e9" d="M147.5 95.5a6.544 6.544 0 0 1 3 3c-2 0-3-1-3-3Z" style="opacity:.02"/><path fill="#d5d5d5" d="M191.5 97.5c3 1 5 3 6 6h-1l-5-6Z" style="opacity:.016"/><path fill="#baccd4" d="M83.5 98.5c3.667 1.667 6.333 4.333 8 8-3-2.333-5.667-5-8-8Z" style="opacity:.416"/><path fill="#dcdadb" d="M152.5 100.5h2l6 7c-3.264-1.594-5.931-3.927-8-7Z" style="opacity:.22"/><path fill="#b4c1c8" d="M236.5 99.5c-2.782 3.896-2.449 7.563 1 11-2.787-.878-4.12-2.878-4-6-.214-2.442.786-4.108 3-5Z" style="opacity:.235"/><path fill="#bdcdd9" d="M93.5 107.5a69.875 69.875 0 0 1 11 9v1c-4.271-2.601-7.937-5.934-11-10Z" style="opacity:.325"/><path fill="#bbb" d="M160.5 107.5c2.589.919 4.589 2.586 6 5-2.589-.919-4.589-2.586-6-5Z" style="opacity:.196"/><path fill="#dedede" d="M197.5 108.5c-.667 2.667-2.333 4.333-5 5 1.333-2 3-3.667 5-5Z" style="opacity:.016"/><path fill="#618ab0" d="M122.5 101.5c2.674 1.68 4.674 4.013 6 7a47.25 47.25 0 0 0 7 3c.891.61 1.891.943 3 1a5.576 5.576 0 0 0 1 3c2.622.959 4.622 2.625 6 5a90.57 90.57 0 0 1 7 10c3.831.395 6.165 2.395 7 6a44.569 44.569 0 0 1-8-3.5c-1.799-2.791-4.133-4.958-7-6.5a261.12 261.12 0 0 1-2-7.5 33.724 33.724 0 0 0-11-1.5 40.774 40.774 0 0 0 8 13 4.457 4.457 0 0 1-2 1.5 36.16 36.16 0 0 1 7 4c-2.383.065-3.05.898-2 2.5-2.123 2.245-3.123 4.912-3 8h4v3h-2a11.743 11.743 0 0 0-5-3c-1-.333-1.667-1-2-2a285.958 285.958 0 0 0-10-11.5 23.423 23.423 0 0 0-6-2.5c.111-.617.444-1.117 1-1.5-3.504-2.01-5.504-5.01-6-9a31.568 31.568 0 0 1-9-2.5v-1a1582.647 1582.647 0 0 1-6-10 5.575 5.575 0 0 1 3 1 29.144 29.144 0 0 0 2.5 5 4.933 4.933 0 0 1 2.5-1c1.556 1.047 3.223 1.714 5 2a8.43 8.43 0 0 1 .5-4c1.333-2.667 2.667-2.667 4 0a16.702 16.702 0 0 1 7.5-4 6.846 6.846 0 0 1-1-4Z" style="opacity:1"/><path fill="#ccdae7" d="M133.5 107.5c2 1.333 3.667 3 5 5a5.727 5.727 0 0 1-3-1c-1.1-1.105-1.767-2.438-2-4Z" style="opacity:.157"/><path fill="#959595" d="M166.5 112.5c2.667.667 4.333 2.333 5 5-2-1.333-3.667-3-5-5Z" style="opacity:.545"/><path fill="#a9b8c4" d="M239.5 112.5c2.589.919 4.589 2.586 6 5-2.589-.919-4.589-2.586-6-5Z" style="opacity:.384"/><path fill="#c6d3dc" d="M51.5 97.5c1.293 1.342 2.126 3.009 2.5 5a75.171 75.171 0 0 1 1.5 13 1770.363 1770.363 0 0 0-1 80h-1c.167-30.668 0-61.335-.5-92a10.099 10.099 0 0 1-1.5-6Z" style="opacity:.415"/><path fill="#b9c8d6" d="M138.5 112.5a47.06 47.06 0 0 1 12 11 11.743 11.743 0 0 1-5-3c-1.378-2.375-3.378-4.041-6-5a5.576 5.576 0 0 1-1-3Z" style="opacity:.165"/><path fill="#434343" d="M196.5 103.5h1c1.333 1.667 1.333 3.333 0 5-2 1.333-3.667 3-5 5a6.547 6.547 0 0 1-3 3c-2.249.58-3.915 1.913-5 4-3 2.667-6 2.667-9 0l6-1a4.934 4.934 0 0 1 .5-3c1.908 2.832 2.741 2.499 2.5-1h4c.34-2.644-.327-4.977-2-7l1-1c1.705 1.803 3.538 2.469 5.5 2 2.46-1.255 3.627-3.255 3.5-6Z" style="opacity:.983"/><path fill="#a3a3a3" d="M171.5 117.5c1.904.238 3.238 1.238 4 3-1.904-.238-3.238-1.238-4-3Z" style="opacity:.416"/><path fill="#c4c4c4" d="M189.5 116.5c-1.085 2.087-2.751 3.42-5 4 1.085-2.087 2.751-3.42 5-4Z" style="opacity:.047"/><path fill="#8a99a8" d="M258.5 116.5c-2.749 3.671-6.416 4.837-11 3.5-.881-.708-1.547-1.542-2-2.5 1.544.203 2.878.87 4 2 2.759-1.622 5.759-2.622 9-3Z" style="opacity:.79"/><path fill="#9bacbe" d="m272.5 127.5-2 49c.333-22.676 0-45.343-1-68a3451.643 3451.643 0 0 1-11 8v-3c2.442.146 3.109-.687 2-2.5l8-4c1-.667 2-.667 3 0a108.41 108.41 0 0 1 1 20.5Z" style="opacity:.575"/><path fill="#4d709a" d="M50.5 102.5c1.495 8.788 1.162 17.622-1 26.5a539.217 539.217 0 0 1 0 65.5c-3.733.234-5.566 2.234-5.5 6-1.395-1.315-2.395-.981-3 1-4.514-3.554-5.68-8.054-3.5-13.5a40.94 40.94 0 0 0-2-10c.616-9.722 1.283-19.388 2-29a122.377 122.377 0 0 0-1-15 54.055 54.055 0 0 1 2-5.5 4.458 4.458 0 0 0-2-1.5 26.689 26.689 0 0 0 1.5-6.5c.718-.951 1.55-1.117 2.5-.5a20.515 20.515 0 0 0 2.5 4.5 529.224 529.224 0 0 1 0 46 38.32 38.32 0 0 0-4.5 13.5 79.014 79.014 0 0 1 5.5 8.5c1.332-.662 2.498-1.828 3.5-3.5a3.646 3.646 0 0 1-1-1.5 52.215 52.215 0 0 0 3-12.5 137.372 137.372 0 0 0-3.5-11.5c-.237-8.808-.403-17.474-.5-26l1-6a10.255 10.255 0 0 1 1.5 4 52.77 52.77 0 0 1 2-13c.5-6.658.666-13.325.5-20Z" style="opacity:1"/><path fill="#879fb7" d="M104.5 117.5a31.568 31.568 0 0 0 9 2.5c.496 3.99 2.496 6.99 6 9-.556.383-.889.883-1 1.5a64.748 64.748 0 0 1-14-13Z" style="opacity:1"/><path fill="#4d71a0" d="M50.5 102.5c.166 6.675 0 13.342-.5 20a52.77 52.77 0 0 0-2 13 10.255 10.255 0 0 0-1.5-4l-1 6c.097 8.526.263 17.192.5 26a137.372 137.372 0 0 1 3.5 11.5 52.215 52.215 0 0 1-3 12.5c.21.586.543 1.086 1 1.5-1.002 1.672-2.168 2.838-3.5 3.5a79.014 79.014 0 0 0-5.5-8.5 38.32 38.32 0 0 1 4.5-13.5 529.224 529.224 0 0 0 0-46 20.515 20.515 0 0 1-2.5-4.5c-.95-.617-1.782-.451-2.5.5a26.689 26.689 0 0 1-1.5 6.5 4.458 4.458 0 0 1 2 1.5 54.055 54.055 0 0 0-2 5.5c.646 5.054.979 10.054 1 15a2588.191 2588.191 0 0 0-2 29 40.94 40.94 0 0 1 2 10c-2.18 5.446-1.014 9.946 3.5 13.5.605-1.981 1.605-2.315 3-1-.066-3.766 1.767-5.766 5.5-6 1.406.473 2.073 1.473 2 3v4a32.462 32.462 0 0 0 8-.5 12.139 12.139 0 0 1 3.5-4.5c1.655 2.247 1.988 4.58 1 7a9.457 9.457 0 0 0 2.5 1.5l-1 1a41.954 41.954 0 0 1 7.5 3.5c.64 1.765.473 3.432-.5 5-2.636 2.1-5.47 2.767-8.5 2-3.752 9.912-10.918 15.578-21.5 17-.372 3.543-2.372 5.71-6 6.5.928.388 1.595 1.055 2 2-2.02 3.179-4.686 5.679-8 7.5a3.647 3.647 0 0 1-1.5-1A3191.41 3191.41 0 0 1 30.5 92c-1.482-2.673-1.315-5.173.5-7.5 3.25 1.705 3.084 3.205-.5 4.5 2.036 1.306 4.036 1.473 6 .5a31.02 31.02 0 0 0 8 5 61.896 61.896 0 0 0 6 8Z" style="opacity:1"/><path fill="#9bafc2" d="M118.5 130.5a23.423 23.423 0 0 1 6 2.5 285.958 285.958 0 0 1 10 11.5 159.115 159.115 0 0 1-16-14Z" style="opacity:.89"/><path fill="#cadbe9" d="M163.5 135.5c2.249.58 3.915 1.913 5 4-2.249-.58-3.915-1.913-5-4Z" style="opacity:.004"/><path fill="#aab9ce" d="M299.5 56.5c1.155 2.763 1.822 5.763 2 9a40693.32 40693.32 0 0 1-2 91v-100Z" style="opacity:.112"/><path fill="#859db2" d="M145.5 120.5a11.743 11.743 0 0 0 5 3 56.984 56.984 0 0 1 13 12c1.085 2.087 2.751 3.42 5 4 4.693 4.361 9.359 8.695 14 13-1.562-.233-2.895-.9-4-2-2.067-.763-3.734-2.096-5-4a3.647 3.647 0 0 0-1.5 1c-.163-2.176-.996-4.009-2.5-5.5a86.758 86.758 0 0 0-10-5.5c-.835-3.605-3.169-5.605-7-6a90.57 90.57 0 0 0-7-10Z" style="opacity:.839"/><path fill="#506d90" d="M282.5 60.5c.013 4.15-1.987 6.65-6 7.5a2072.96 2072.96 0 0 1-3 4c.924 1.15.924 2.15 0 3l-7 1a11.339 11.339 0 0 0-1.5 3.5 128.745 128.745 0 0 0-25.5 24 29.046 29.046 0 0 1 7.5 10 3.943 3.943 0 0 1 2-1 16.994 16.994 0 0 0 6.5 2v-3h3c1.129-2.649 3.129-5.482 6-8.5a22.981 22.981 0 0 0-5-2c1.5-.833 2.667-2 3.5-3.5a30.748 30.748 0 0 0 7 8c2.185-1.258 4.352-1.258 6.5 0 1.263 2.455 2.263 4.788 3 7-3.179 3.729-4.679 8.063-4.5 13-.531 24.826-1.031 49.493-1.5 74l-2-3v-1c.76-22.658 1.093-45.325 1-68a108.41 108.41 0 0 0-1-20.5c-1-.667-2-.667-3 0l-8 4c1.109 1.813.442 2.646-2 2.5v3c-3.241.378-6.241 1.378-9 3-1.122-1.13-2.456-1.797-4-2-1.411-2.414-3.411-4.081-6-5-1-.333-1.667-1-2-2-3.449-3.437-3.782-7.104-1-11a37.41 37.41 0 0 0 11-9 47.233 47.233 0 0 0 12-11 307.874 307.874 0 0 0 23-19Z" style="opacity:1"/><path fill="#aec2d5" d="M136.5 146.5a11.743 11.743 0 0 1 5 3l5 6c-3.936-2.266-7.269-5.266-10-9Z" style="opacity:.412"/><path fill="#bcccd9" d="M148.5 157.5c4.605 2.936 8.605 6.602 12 11-4.605-2.936-8.605-6.602-12-11Z" style="opacity:.349"/><path fill="#bacbd8" d="M182.5 152.5a162.692 162.692 0 0 1 13 12 60.364 60.364 0 0 1-8-5.5c-2.29-1.777-3.957-3.944-5-6.5Z" style="opacity:.176"/><path fill="#7289a5" d="M272.5 127.5c.093 22.675-.24 45.342-1 68-.99-6.145-1.323-12.478-1-19l2-49Z" style="opacity:.805"/><path fill="#c0d2df" d="M164.5 172.5c3.264 1.594 5.931 3.927 8 7-3.264-1.594-5.931-3.927-8-7Z" style="opacity:.255"/><path fill="#aabad2" d="M86.5 176.5a29.23 29.23 0 0 0-9 1c2.764-3.239 5.764-3.572 9-1Z" style="opacity:.412"/><path fill="#6a89a5" d="M141.5 149.5h2c.787 1.604 2.12 2.271 4 2 .374 3.388 2.374 5.222 6 5.5a56.267 56.267 0 0 1 7 9c2.091 1.675 4.258 2.175 6.5 1.5a75.95 75.95 0 0 1 3.5 7.5c3.575 2.229 6.908 4.895 10 8a32.5 32.5 0 0 1 7 3c-.958 1.147-.625 2.147 1 3 1.717 1.559 3.717 2.392 6 2.5a38.146 38.146 0 0 0 3 8 4.934 4.934 0 0 1 3 .5 173.234 173.234 0 0 0 9 10.5l-4-1c-2-1.333-3.667-3-5-5-2.069-3.073-4.736-5.406-8-7-2.069-3.073-4.736-5.406-8-7-1.333-2-3-3.667-5-5-1.411-2.414-3.411-4.081-6-5-.667 0-1-.333-1-1-2.069-3.073-4.736-5.406-8-7-1.667-1-3-2.333-4-4-3.395-4.398-7.395-8.064-12-11-1-.333-1.667-1-2-2l-5-6Z" style="opacity:1"/><path fill="#c1d1db" d="M173.5 180.5c2.589.919 4.589 2.586 6 5-2.589-.919-4.589-2.586-6-5Z" style="opacity:.275"/><path fill="#aeb7c9" d="M76.5 177.5c-.58 2.249-1.913 3.915-4 5h-1c1.333-2 3-3.667 5-5Z" style="opacity:.404"/><path fill="#bdccda" d="M87.5 176.5a47.073 47.073 0 0 1 12 11 11.741 11.741 0 0 1-5-3 20.29 20.29 0 0 1-7-8Z" style="opacity:.204"/><path fill="#787777" d="M148.5 183.5v1c-2.629-1.214-5.296-1.214-8 0v-1c2.667-2.667 5.333-2.667 8 0Z" style="opacity:.651"/><path fill="#b5c8d3" d="M212.5 180.5c2.254.624 3.921 1.957 5 4-2.295-.636-3.961-1.969-5-4Z" style="opacity:.208"/><path fill="#c4c4c4" d="M148.5 184.5v-1c1.527-.073 2.527.594 3 2a5.727 5.727 0 0 1-3-1Z" style="opacity:.059"/><path fill="#a2a1a1" d="M140.5 183.5v1c-1.32 1.442-2.986 2.108-5 2 1.399-1.39 3.066-2.39 5-3Z" style="opacity:.443"/><path fill="#c5d4e2" d="M179.5 185.5c2 1.333 3.667 3 5 5-2.667-.667-4.333-2.333-5-5Z" style="opacity:.027"/><path fill="#716f70" d="M151.5 185.5c1.667 1 3 2.333 4 4-2.642.012-3.975-1.321-4-4Z" style="opacity:.816"/><path fill="#7291ae" d="M178.5 150.5c1.105 1.1 2.438 1.767 4 2 1.043 2.556 2.71 4.723 5 6.5a60.364 60.364 0 0 0 8 5.5c6.37 4.707 12.036 10.04 17 16 1.039 2.031 2.705 3.364 5 4a983.77 983.77 0 0 1 8 7 5.727 5.727 0 0 0 1 3c-3.903-2.152-8.236-3.319-13-3.5a40.261 40.261 0 0 0-4-4.5c2.139-4.482.805-7.315-4-8.5.951-.718 1.117-1.551.5-2.5-3.449-3.523-7.615-5.523-12.5-6 .262-1.478-.071-2.811-1-4a32.777 32.777 0 0 0-11-8 15.438 15.438 0 0 1-3-7Z" style="opacity:1"/><path fill="#dce7f3" d="M270.5 176.5c-.323 6.522.01 12.855 1 19v7c-1.465-5.09-2.132-10.423-2-16 .002-3.518.335-6.851 1-10Z" style="opacity:.068"/><path fill="#979797" d="M135.5 186.5c-1.333 3.333-3.667 5.667-7 7 2-2.667 4.333-5 7-7Z" style="opacity:.478"/><path fill="#b8cad6" d="M184.5 190.5c3.264 1.594 5.931 3.927 8 7-3.264-1.594-5.931-3.927-8-7Z" style="opacity:.235"/><path fill="#5f5d5e" d="M155.5 189.5a6.547 6.547 0 0 1 3 3v1c-1.946-.535-2.946-1.868-3-4Z" style="opacity:.878"/><path fill="#d8d7d7" d="M158.5 193.5v-1c1.904.238 3.238 1.238 4 3-1.562-.233-2.895-.9-4-2Z" style="opacity:.012"/><path fill="#b7c6d7" d="M225.5 191.5c2.667 2 5 4.333 7 7a17.902 17.902 0 0 1-6-4 5.727 5.727 0 0 1-1-3Z" style="opacity:.212"/><path fill="#8d9eb0" d="M299.5 152.5v4c.167 21.336 0 42.669-.5 64-1.161 2.165-2.994 3.165-5.5 3-3.932-.633-7.266-2.299-10-5a18.974 18.974 0 0 0 8 2c1.517 1.235 3.184 1.235 5 0a1927.921 1927.921 0 0 0 3-68Z" style="opacity:.222"/><path fill="#a8a6a7" d="M162.5 195.5a6.547 6.547 0 0 1 3 3c-2 0-3-1-3-3Z" style="opacity:.435"/><path fill="#7d8fa7" d="M94.5 184.5a11.741 11.741 0 0 0 5 3c1.302 2.607 1.136 5.273-.5 8a1163.974 1163.974 0 0 1-23.5 20v-5h5v-3c2.16-.326 3.994-1.326 5.5-3 .617-.949.45-1.782-.5-2.5a8.43 8.43 0 0 1 4-.5v-4c3.838-1.162 6.838-3.495 9-7-.247-1.213-.914-1.88-2-2-1.1-1.105-1.767-2.438-2-4Z" style="opacity:1"/><path fill="#838383" d="M128.5 193.5a24.93 24.93 0 0 0-1 8c-2.809-2.974-2.476-5.641 1-8Z" style="opacity:.545"/><path fill="#b4c3d1" d="M192.5 197.5c3.264 1.594 5.931 3.927 8 7-3.264-1.594-5.931-3.927-8-7Z" style="opacity:.224"/><path fill="#697f9a" d="m271.5 196.5 2 3a94.146 94.146 0 0 1 3 9 41.927 41.927 0 0 1 7 10c-3.978-1.978-6.978-4.978-9-9 .114-2.716-.886-4.716-3-6v-7Z" style="opacity:1"/><path fill="#4e6e98" d="M86.5 176.5h1a20.29 20.29 0 0 0 7 8c.233 1.562.9 2.895 2 4 1.086.12 1.753.787 2 2-2.162 3.505-5.162 5.838-9 7v4a8.43 8.43 0 0 0-4 .5c.95.718 1.117 1.551.5 2.5-1.506 1.674-3.34 2.674-5.5 3v3h-5c-.614 1.015-1.614 2.348-3 4 .973-1.568 1.14-3.235.5-5a41.954 41.954 0 0 0-7.5-3.5l1-1a9.457 9.457 0 0 1-2.5-1.5c.988-2.42.655-4.753-1-7a12.139 12.139 0 0 0-3.5 4.5 32.462 32.462 0 0 1-8 .5v-4c2.4 2.444 5.067 2.611 8 .5 5.4-4.316 9.733-9.483 13-15.5 2.087-1.085 3.42-2.751 4-5h1a29.23 29.23 0 0 1 9-1Z" style="opacity:1"/><path fill="#4c70a3" d="M96.5 188.5c-.06 2.55-1.394 4.05-4 4.5l1 1a29.126 29.126 0 0 1-5 2.5c-1.353 1.024-2.02 2.357-2 4h-7a24.939 24.939 0 0 0-.5-7c-3.781 1.38-6.948.046-9.5-4 2.368-1.372 4.034-3.372 5-6 1.758 2.238 4.092 3.238 7 3v-4c2.761 1.42 5.761 2.087 9 2v3a19.22 19.22 0 0 1 6 1Z" style="opacity:1"/><path fill="#dadada" d="M168.5 201.5c1.527-.073 2.527.594 3 2-1.527.073-2.527-.594-3-2Z" style="opacity:.016"/><path fill="#767676" d="M127.5 202.5c3.859.852 6.526 3.186 8 7a3741.969 3741.969 0 0 0-8-7Z" style="opacity:.576"/><path fill="#a9bcce" d="M271.5 203.5c2.114 1.284 3.114 3.284 3 6-1.37-1.75-2.37-3.75-3-6Z" style="opacity:.506"/><path fill="#8d8b8c" d="M171.5 203.5a6.547 6.547 0 0 1 3 3h-3v-3Z" style="opacity:.506"/><path fill="#b6c3ce" d="M24.5 198.5h1a625.626 625.626 0 0 0 1 50c-.086.996.248 1.829 1 2.5 1.634.494 3.3.66 5 .5-4.36 2.12-7.193.787-8.5-4a1901.82 1901.82 0 0 1 .5-49Z" style="opacity:.307"/><path fill="#9a9999" d="M174.5 206.5c2 1.333 3.667 3 5 5-2.667-.667-4.333-2.333-5-5Z" style="opacity:.584"/><path fill="#979697" d="M135.5 209.5c2.589.919 4.589 2.586 6 5-2.589-.919-4.589-2.586-6-5Z" style="opacity:.349"/><path fill="#95aabd" d="m205.5 209.5 4 1c1.21.432 2.21 1.099 3 2-.438-.065-.772.101-1 .5 1.71 1.651 3.044 3.484 4 5.5-3.679-2.524-7.012-5.524-10-9Z" style="opacity:1"/><path fill="#cbcaca" d="M179.5 211.5c2.589.919 4.589 2.586 6 5-2.589-.919-4.589-2.586-6-5Z" style="opacity:.059"/><path fill="#618ab3" d="M159.5 136.5a86.758 86.758 0 0 1 10 5.5c1.504 1.491 2.337 3.324 2.5 5.5a3.647 3.647 0 0 1 1.5-1c1.266 1.904 2.933 3.237 5 4a15.438 15.438 0 0 0 3 7 32.777 32.777 0 0 1 11 8c.929 1.189 1.262 2.522 1 4 4.885.477 9.051 2.477 12.5 6 .617.949.451 1.782-.5 2.5 4.805 1.185 6.139 4.018 4 8.5a40.261 40.261 0 0 1 4 4.5c4.764.181 9.097 1.348 13 3.5a17.902 17.902 0 0 0 6 4 16.635 16.635 0 0 1 6 5c.359 1.871 1.359 3.371 3 4.5l-2 1a64.417 64.417 0 0 1 8 5.5c5.187 8.496 12.52 14.163 22 17a36.695 36.695 0 0 1 3 9c-1.194 1.299-2.194 2.632-3 4-1.358-1.126-2.692-1.126-4 0a3.647 3.647 0 0 0 1 1.5l-5 1c-1.448 5.21-3.782 5.71-7 1.5a3.647 3.647 0 0 0-1.5 1c-.461-2.704-1.961-5.204-4.5-7.5a254.787 254.787 0 0 1-25-18.5 8.43 8.43 0 0 0-.5-4 167.8 167.8 0 0 1-10.5-7c-.79-.901-1.79-1.568-3-2a173.234 173.234 0 0 1-9-10.5 4.934 4.934 0 0 0-3-.5 38.146 38.146 0 0 1-3-8c-2.283-.108-4.283-.941-6-2.5-1.625-.853-1.958-1.853-1-3a32.5 32.5 0 0 0-7-3c-3.092-3.105-6.425-5.771-10-8a75.95 75.95 0 0 0-3.5-7.5c-2.242.675-4.409.175-6.5-1.5a56.267 56.267 0 0 0-7-9c-3.626-.278-5.626-2.112-6-5.5-1.88.271-3.213-.396-4-2v-3h-4c-.123-3.088.877-5.755 3-8-1.05-1.602-.383-2.435 2-2.5a36.16 36.16 0 0 0-7-4 4.457 4.457 0 0 0 2-1.5 40.774 40.774 0 0 1-8-13 33.724 33.724 0 0 1 11 1.5 261.12 261.12 0 0 0 2 7.5c2.867 1.542 5.201 3.709 7 6.5a44.569 44.569 0 0 0 8 3.5Z" style="opacity:1"/><path fill="#8d8d8d" d="M143.5 216.5c2 0 3 1 3 3a6.547 6.547 0 0 1-3-3Z" style="opacity:.467"/><path fill="#9c9b9c" d="M185.5 216.5a25.658 25.658 0 0 1 6 6c-3-1-5-3-6-6Z" style="opacity:.427"/><path fill="#9aaabc" d="M75.5 215.5a5628.602 5628.602 0 0 0-9 8c.913-1.586.913-3.086 0-4.5 3.264-.638 6.264-1.804 9-3.5Z" style="opacity:.949"/><path fill="#72839a" d="M27.5 85.5c-.207 54.334-.54 108.668-1 163a625.626 625.626 0 0 1-1-50c.194-37.838.86-75.504 2-113Z" style="opacity:.868"/><path fill="#a4a4a4" d="M146.5 219.5c2.589.919 4.589 2.586 6 5-2.589-.919-4.589-2.586-6-5Z" style="opacity:.337"/><path fill="#c2d0da" d="M217.5 220.5c3 1 5 3 6 6a25.658 25.658 0 0 1-6-6Z" style="opacity:.251"/><path fill="#908f90" d="M152.5 224.5c4.271 2.601 7.937 5.934 11 10-4.271-2.601-7.937-5.934-11-10Z" style="opacity:.51"/><path fill="#d1d1d2" d="M193.5 224.5c1.527-.073 2.527.594 3 2-1.527.073-2.527-.594-3-2Z" style="opacity:.008"/><path fill="#c1d1d9" d="M66.5 223.5c-1.08 2.043-2.746 3.376-5 4 1.039-2.031 2.705-3.364 5-4Z" style="opacity:.02"/><path fill="#9a9a9a" d="M196.5 226.5c1.667 1 3 2.333 4 4-2.333-.333-3.667-1.667-4-4Z" style="opacity:.416"/><path fill="#becfda" d="M225.5 227.5c4.605 2.936 8.605 6.602 12 11-4.605-2.936-8.605-6.602-12-11Z" style="opacity:.322"/><path fill="#849cb0" d="M238.5 203.5a906.798 906.798 0 0 1 31 28c-9.48-2.837-16.813-8.504-22-17a64.417 64.417 0 0 0-8-5.5l2-1c-1.641-1.129-2.641-2.629-3-4.5Z" style="opacity:.976"/><path fill="#b4c0cc" d="M60.5 228.5c-2.05 3.05-4.716 5.383-8 7 .01-1.517.677-2.684 2-3.5a30.126 30.126 0 0 1 6-3.5Z" style="opacity:.149"/><path fill="#908e8f" d="M164.5 235.5c3.936 2.266 7.269 5.266 10 9-3.936-2.266-7.269-5.266-10-9Z" style="opacity:.455"/><path fill="#a3a2a2" d="M205.5 234.5c2 1.333 3.667 3 5 5-2.667-.667-4.333-2.333-5-5Z" style="opacity:.31"/><path fill="#222122" d="M148.5 184.5c.891.61 1.891.943 3 1 .025 2.679 1.358 4.012 4 4 .054 2.132 1.054 3.465 3 4 1.105 1.1 2.438 1.767 4 2 0 2 1 3 3 3a6.547 6.547 0 0 1 3 3c.473 1.406 1.473 2.073 3 2v3h3c.667 2.667 2.333 4.333 5 5 1.411 2.414 3.411 4.081 6 5 1 3 3 5 6 6 1 .333 1.667 1 2 2 .473 1.406 1.473 2.073 3 2 .333 2.333 1.667 3.667 4 4a802.777 802.777 0 0 0 5 4c.667 2.667 2.333 4.333 5 5 .667 2.667 2.333 4.333 5 5 2.254.624 3.921 1.957 5 4 0 2 1 3 3 3 0 2 1 3 3 3 1.365 2.36 3.365 4.027 6 5 .194 2.412 1.527 3.412 4 3-.073 1.527.594 2.527 2 3 1.969 3.984.969 6.817-3 8.5-45.332.5-90.665.667-136 .5-2.885.306-5.552-.027-8-1-.473-1.406-1.473-2.073-3-2-1.333-2-1.333-4 0-6 2-1.333 3.667-3 5-5 5.024-4.03 10.024-8.03 15-12h26c14.161 1.161 28.494 1.327 43 .5 1.485-1.756 1.152-2.923-1-3.5-.342-.838-1.008-1.172-2-1-2.731-3.734-6.064-6.734-10-9-.667 0-1-.333-1-1-3.063-4.066-6.729-7.399-11-10-1.411-2.414-3.411-4.081-6-5 0-2-1-3-3-3-1.333 0-2-.667-2-2-1.411-2.414-3.411-4.081-6-5-1.474-3.814-4.141-6.148-8-7v-1a24.93 24.93 0 0 1 1-8c3.333-1.333 5.667-3.667 7-7 2.014.108 3.68-.558 5-2 2.704-1.214 5.371-1.214 8 0Z" style="opacity:1"/><path fill="#566f8f" d="M37.5 82.5c.63 2.497 2.296 3.83 5 4 .762 1.762 2.096 2.762 4 3 .054 2.132 1.054 3.465 3 4 .16 1.653.826 2.986 2 4a10.099 10.099 0 0 0 1.5 6c.5 30.665.667 61.332.5 92 .343 1.725 1.343 2.225 3 1.5a102.922 102.922 0 0 0 15-14.5h1c-3.267 6.017-7.6 11.184-13 15.5-2.933 2.111-5.6 1.944-8-.5.073-1.527-.594-2.527-2-3a539.217 539.217 0 0 0 0-65.5c2.162-8.878 2.495-17.712 1-26.5a61.896 61.896 0 0 1-6-8 31.02 31.02 0 0 1-8-5c-1.964.973-3.964.806-6-.5 3.584-1.295 3.75-2.795.5-4.5-1.815 2.327-1.982 4.827-.5 7.5A3191.41 3191.41 0 0 0 29 248.5c.414.457.914.791 1.5 1 3.314-1.821 5.98-4.321 8-7.5-.405-.945-1.072-1.612-2-2 3.628-.79 5.628-2.957 6-6.5 10.582-1.422 17.748-7.088 21.5-17 3.03.767 5.864.1 8.5-2 1.386-1.652 2.386-2.985 3-4v5c-2.736 1.696-5.736 2.862-9 3.5.913 1.414.913 2.914 0 4.5-2.295.636-3.961 1.969-5 4 0 .667-.333 1-1 1a30.126 30.126 0 0 0-6 3.5c-1.323.816-1.99 1.983-2 3.5 0 .667-.333 1-1 1a19.22 19.22 0 0 1-6 1 4.932 4.932 0 0 1-.5 3c-2.13-1.363-2.63-1.029-1.5 1a70.879 70.879 0 0 0-10 10h-1a12.93 12.93 0 0 1-5-.5c-.752-.671-1.086-1.504-1-2.5.46-54.332.793-108.666 1-163-.086-.996.248-1.83 1-2.5a40.936 40.936 0 0 1 9-.5Z" style="opacity:1"/><path fill="#aabaca" d="M71.5 182.5a102.922 102.922 0 0 1-15 14.5c-1.657.725-2.657.225-3-1.5h1a162.663 162.663 0 0 0 17-13Z" style="opacity:.294"/><path fill="#96a5b5" d="M51.5 236.5a97.065 97.065 0 0 1-18 15 70.879 70.879 0 0 1 10-10c-1.13-2.029-.63-2.363 1.5-1 .483-.948.65-1.948.5-3a19.222 19.222 0 0 0 6-1Z" style="opacity:.957"/><path fill="#929292" d="M210.5 239.5c2 1.333 3.667 3 5 5-2.667-.667-4.333-2.333-5-5Z" style="opacity:.525"/><path fill="#b6c5d1" d="M269.5 231.5c4.121 3.19 5.287 7.19 3.5 12-1.129 1.641-2.629 2.641-4.5 3l1-2c.806-1.368 1.806-2.701 3-4a36.695 36.695 0 0 0-3-9Z" style="opacity:.706"/><path fill="#9d9d9d" d="M127.5 247.5v1h-19c3.554-1.484 7.388-2.151 11.5-2 2.69.003 5.19.336 7.5 1Z" style="opacity:.463"/><path fill="#d4d3d4" d="M174.5 244.5c.992-.172 1.658.162 2 1v3h-49v-1a576.95 576.95 0 0 0 48-1 43.836 43.836 0 0 1-1-2Z" style="opacity:.125"/><path fill="#373636" d="M176.5 245.5c2.152.577 2.485 1.744 1 3.5-14.506.827-28.839.661-43-.5h42v-3Z" style="opacity:.792"/><path fill="#9b9b9d" d="M220.5 248.5a6.547 6.547 0 0 1 3 3c-2 0-3-1-3-3Z" style="opacity:.439"/><path fill="#6e8ca4" d="M212.5 212.5a167.8 167.8 0 0 0 10.5 7 8.43 8.43 0 0 1 .5 4 254.787 254.787 0 0 0 25 18.5c2.539 2.296 4.039 4.796 4.5 7.5a3.647 3.647 0 0 1 1.5-1c3.218 4.21 5.552 3.71 7-1.5l5-1a3.647 3.647 0 0 1-1-1.5c1.308-1.126 2.642-1.126 4 0l-1 2c-1.739 2.743-4.073 4.743-7 6a24.935 24.935 0 0 1-7-.5 164.905 164.905 0 0 1-12-8.5c-2-1.333-3.667-3-5-5-3.395-4.398-7.395-8.064-12-11l-2-1c-1-3-3-5-6-6-1-.333-1.667-1-2-2-.956-2.016-2.29-3.849-4-5.5.228-.399.562-.565 1-.5Z" style="opacity:1"/><path fill="#858587" d="M223.5 251.5a6.547 6.547 0 0 1 3 3c-2 0-3-1-3-3Z" style="opacity:.569"/><path fill="#b0c4d1" d="M242.5 243.5a164.905 164.905 0 0 0 12 8.5c2.31.497 4.643.663 7 .5-2.724 2.438-5.724 2.605-9 .5a45.018 45.018 0 0 1-10-9.5Z" style="opacity:.442"/><path fill="#a2a0a1" d="M108.5 248.5c-4.976 3.97-9.976 7.97-15 12 3.796-5.459 8.796-9.459 15-12Z" style="opacity:.384"/><path fill="#939393" d="M226.5 254.5c2.609.943 4.609 2.61 6 5-2.635-.973-4.635-2.64-6-5Z" style="opacity:.667"/><path fill="#9a9899" d="M232.5 259.5a308.607 308.607 0 0 1 4 3c-2.473.412-3.806-.588-4-3Z" style="opacity:.561"/><path fill="#c9c9c9" d="M93.5 260.5c-1.333 2-3 3.667-5 5 .667-2.667 2.333-4.333 5-5Z" style="opacity:.196"/><path fill="#bdbbbc" d="M236.5 262.5c1.406.473 2.073 1.473 2 3-1.406-.473-2.073-1.473-2-3Z" style="opacity:.161"/><path fill="#b5b3b4" d="M88.5 271.5c1.527-.073 2.527.594 3 2-1.527.073-2.527-.594-3-2Z" style="opacity:.141"/><path fill="#939292" d="M238.5 265.5c.617.111 1.117.444 1.5 1 1.718 4.885.218 8.051-4.5 9.5-45.498.013-90.831-.487-136-1.5 45.335.167 90.668 0 136-.5 3.969-1.683 4.969-4.516 3-8.5Z" style="opacity:.616"/></svg>